<?xml version="1.0" encoding="UTF-8"?>
<svg xmlns="http://www.w3.org/2000/svg" viewBox="0 0 160 160">
  <defs>
    <style>
      .cls-1 {
        stroke-width: .5px;
      }

      .cls-1, .cls-2 {
        fill: none;
        stroke: #fff;
        stroke-miterlimit: 10;
      }

      .cls-2 {
        stroke-width: .25px;
      }
    </style>
  </defs>
  <g id="Layer_1" data-name="Layer 1">
    <path class="cls-2" d="M63.31,151.26c.38-.16.54-.11.62-.05.23.2-.13.72.16,1.14.02.03.2.28.46.27.11,0,.26-.05.36-.18.06-.09.08-.17.08-.22-.14-.7-.29-1.39-.43-2.09-.06-.09-.15-.2-.29-.26-.3-.13-.62.03-.83.11-.65.25-.86-.01-1.82.08-.39.04-.96.14-1.64.44.05-.99,0-1.77-.07-2.31-.06-.46-.15-1.07-.03-1.88.06-.42.1-.62.24-.84.55-.84,1.95-.76,1.94-.86,0-.04-.26-.09-1.54-.08.15-2.31,0-2.94-.21-2.99-.14-.03-.34.21-.71.16-.1-.01-.26-.04-.36-.16-.24-.3.2-.84,0-1.05-.17-.18-.57.09-.78-.11-.16-.16,0-.42-.11-.5-.22-.17-.86.82-1.97,1.1-.72.18-.94-.11-1.43.08-.47.18-1.01.76-1.27,2.49-.04.5.07.73.21.83.15.1.29.05.72.01.6-.04.9-.06,1.05.06.27.21.23.69.17,1.43-.05.53-.07.79-.19,1.07-.36.8-1,.78-1.13,1.38.02.45.12.95.47,1.19.78.53,2.39-.44,2.5-.21.07.14-.55.48-.5.98,0,.05.02.19.13.28.25.22.76,0,.8-.03.49-.23.6-.67.74-.63.13.04.04.47.15,1.28.09.65.2.87.37,1.01.03.02.23.19.52.19.26,0,.4-.12.61-.23.6-.3.81.03,1.4-.22.47-.21.47-.48.96-.62.25-.07.48-.06.64-.05Z"/>
    <path class="cls-2" d="M54.57,141.38s-.89.14-1.22.91c-.24.57-.1,1.25.35,1.7"/>
    <path class="cls-2" d="M57.67,147.06c-1.33.49-1.57.69-1.55.78.03.15.79.13,1.2.1.67-.05.9-.2,1.19-.06.28.14.42.45.5.81-.17.42-.33.83-.5,1.25"/>
    <path class="cls-2" d="M54.92,144c.12-.47.28-.83.4-1.08.13-.26.23-.41.41-.48.18-.07.36-.03.46,0"/>
    <path class="cls-2" d="M57.15,140.86c-.1.18-.23.43-.31.77-.03.14-.12.54,0,1.42.13.96.19,1.44.52,1.61.31.17.55-.08,1,0,.57.1.95.65,1.19,1.13"/>
    <path class="cls-2" d="M56.19,145.31c.25-.11.46-.11.59-.1.65.08,1.22.82,1.38,1.84"/>
    <path class="cls-1" d="M56.78,145.22c.13-.24.26-.48.39-.72"/>
    <path class="cls-2" d="M55.93,141.04l1.15-1.39"/>
    <path class="cls-2" d="M56.93,139.55c-.33.5-.66.99-1,1.49"/>
    <path class="cls-2" d="M57.08,139.65c5.2-6.24,10.39-12.48,15.59-18.73"/>
    <path class="cls-2" d="M56.86,139.65c5.15-6.24,10.29-12.48,15.44-18.73"/>
    <path class="cls-2" d="M71.92,125.28c-4.23,5.07-8.45,10.14-12.68,15.21"/>
    <path class="cls-2" d="M73.98,125.28c-4.91,5.07-9.83,10.14-14.74,15.21"/>
    <path class="cls-2" d="M72.3,125.37c-4.12,4.76-8.23,9.51-12.35,14.27"/>
  </g>
  <g id="Layer_2" data-name="Layer 2">
    <path class="cls-2" d="M72.2,125.49c.39.13.72.06,1.01,0,1.86-.36,1.95-.26,2.33-.53.12-.08.84-.61.74-1.1-.07-.35-.5-.41-.55-.74-.06-.37.47-.55.77-.98.56-.81-.32-1.61-.34-3.28-.02-1.67.83-2.72.34-3.13-.34-.28-.97.02-1.07-.21-.11-.25.66-.59.64-1.13-.02-.47-.62-.95-1.2-1.01-.64-.07-.87.42-1.32.28-.5-.16-.38-.82-1.01-1.26-.04-.03-.7-.47-1.23-.25-.78.33-.28,1.72-1.2,2.48-.69.58-1.55.26-1.78.83-.17.42.24.77,0,1.23-.22.41-.7.41-.71.67,0,.25.44.27.64.71.14.3.12.73-.09.98-.25.3-.58.12-.86.4-.38.37-.33,1.22,0,1.41.28.16.67-.2.86-.03.2.18-.16.67.03.89.26.29,1.17-.37,1.5-.06.26.24-.19.76.09,1.38.19.42.66.77,1.1.77.38,0,.58-.28.71-.18.2.15-.38.87-.09,1.41.16.3.5.41.67.47Z"/>
    <path class="cls-2" d="M70.16,121.61c0-.25.05-.26.06-.54.03-.64-.22-.94-.08-1.06.13-.12.41.11.84.18.71.11,1.17-.43,1.29-.3.1.11-.27.52-.91,1.49-.53.8-.69,1.15-.87,1.11-.21-.04-.31-.56-.32-.87Z"/>
    <path class="cls-2" d="M71.47,117.06c-.03.2-.03.44.11.56.2.18.54-.02.68.14.14.17-.14.48,0,.72.09.15.3.2.47.21"/>
    <path class="cls-2" d="M75.73,123.12c-.59-.74-1.04-.88-1.35-.86-.34.02-.49.22-.96.2-.5-.02-.71-.27-.87-.15-.2.15.11.63,0,1.2-.09.47-.42.81-.68,1.02"/>
    <path class="cls-2" d="M73.98,125.28c.04-.22.16-.96-.29-1.47-.04-.05-.36-.42-.64-.34-.18.05-.23.27-.35.46-.16.27-.48.57-1.21.74"/>
    <path class="cls-2" d="M70.91,113.31c.08.05.47.33.56.87.11.61-.24,1.05-.29,1.11"/>
    <path class="cls-2" d="M72.77,113.52c.27.25.54.58.7,1.02.19.56.03.81.2,1.51.19.75.55,1.14.46,1.2-.11.08-.63-.64-1.64-1.27-.56-.35-1.12-.7-1.79-.71-1.24-.02-2.14,1.11-2.36,1.4"/>
    <path class="cls-2" d="M74.13,117.26c.09.41.18,1.09,0,1.88-.24,1.07-.86,1.79-1.07,2.04-.82.94-1.61,1.45-1.55,1.54.03.04.24-.01,1.05-.43"/>
    <path class="cls-2" d="M68.34,116.68s.49-.32,1.01-.12c.3.11.64.39.66.71.03.45-.55,1.02-1.51,1.09"/>
    <path class="cls-2" d="M97.42,88.05c-1.19.87-1.93,1.75-2.38,2.37-.49.69-.64,1.09-.56,1.49.13.68.83,1.05,1.03,1.15,1.03.54,2.16.14,2.84-.08.57-.19,1.12-.37,1.57-.92.1-.12.84-1.03.54-1.83-.12-.32-.35-.48-.95-.87-.58-.37-1.28-.82-2.09-1.3Z"/>
    <path class="cls-2" d="M94.85,75.72c.52,1.46,1.03,3.1,1.45,4.89.65,2.75.97,5.26,1.12,7.44"/>
    <path class="cls-1" d="M93.77,81.42c.33-.3.76-.76,1.08-1.42.8-1.64.35-3.26.21-3.71"/>
    <path class="cls-2" d="M87.81,83.51c-.05.13-.04.41,0,.65.09.48.35.92.55,1.06.54.35,2.02-.6,3.58-2.4-2.18-.28-3.88-.03-4.14.69Z"/>
    <path class="cls-2" d="M91.94,82.81l1.83-1.4"/>
    <path class="cls-2" d="M91.13,59.58c1.31,5.57,2.61,11.14,3.92,16.71"/>
    <path class="cls-2" d="M96.62,57.24c-1.5,1.05-2.25,1.57-2.85,1.82-2.07.86-2.95.09-4.13,1.13-.57.5-.74,1.01-1.53,1.31-.18.07-1.15.44-1.67,0-.5-.42-.1-1.19-.76-2.06-.09-.12-.24-.25-.55-.52-1.02-.9-1.4-.88-1.85-1.53-.26-.37-.22-.49-.47-.69-.45-.36-.86-.2-1.05-.51-.16-.27.09-.44,0-.98-.08-.46-.29-.46-.4-.95-.1-.47.06-.62,0-1.09-.06-.44-.26-.74-.47-1.05-1.28-1.86-2.16-2.6-2.58-3.96-.07-.24-.14-.45-.18-.76-.14-1.1.29-1.6,0-2.11-.22-.38-.55-.26-.95-.58-.79-.64-.93-2.28-.4-3.45.32-.7.63-.69,3.02-2.95.58-.54.86-.83.91-.91,1.29-1.94-.37-4.18.91-5.66.36-.42.73-.52.91-1.07.25-.75-.3-1.15-.07-1.85.25-.76.8-.66,1.6-1.64.92-1.13.71-1.89,1.49-2.22.6-.25,1.02.08,1.38-.25.44-.41.23-1.31.16-1.57-.32-1.13,5.03-5.47,6.77-5.47,5.81,0,19.72,10.15,21.94,13.22.06.08-.14.53-.22,1.2-.11,1,.02,1.38-.25,1.6-.38.31-.97-.13-1.24.18-.26.29.16.81-.15,1.16-.16.19-.44.22-.69.25-.36.05-.54-.04-.69-.04-.72.02-.83,1.98-2,3.75-.83,1.26-1.24.96-1.75,2.07-.53,1.17-.42,2.25-1.13,2.55-.43.18-.7-.12-.98.11-.48.38.23,1.31-.18,2.33-.37.91-1.24.88-1.35,1.67-.08.64.47.78.44,1.49-.04.86-.87.9-1.16,1.96-.26.93.23,1.46-.22,1.96-.3.35-.6.18-.95.58-.42.49-.11.89-.51,1.31-.25.27-.38.11-1.31.55-.47.22-.52.3-.8.36-.51.12-.91-.03-1.13-.07-.83-.18-1.59.46-2.91,1.38Z"/>
    <path class="cls-2" d="M94.52,17.84c.27.43.78,1.4.67,2.63-.11,1.19-.8,2.62-1.53,2.62-.6,0-.98-.9-1.28-.77-.29.13.07.97-.38,1.4-.35.33-.82.12-1.02.45-.2.32.18.66,0,.96-.25.42-1.15-.03-1.53.38-.45.49.44,1.52,0,2.3-.29.52-.94.51-1.53.7-2.12.7-3,3.86-3.57,5.94-.71,2.57-.22,2.97-.96,4.66-.85,1.95-1.98,2.17-3.06,3.77-.82,1.21-1.67,3.19-1.44,6.5"/>
    <path class="cls-2" d="M93.62,21.79c-.16-.23-.41-.52-.78-.61-.52-.12-.89.24-1.71.75-1.59.99-2.48,1.04-2.49,1.57-.02.46.64.76.52.99-.13.26-.98-.19-1.36.17-.41.39.21,1.24-.23,1.74-.25.29-.53.1-1.22.41-.47.21-1.18.68-1.1,1.04.07.31.66.43.87.46"/>
    <path class="cls-2" d="M84.06,32.32c.03-.06.31-.55.12-.93-.02-.04-.07-.14-.18-.22-.1-.07-.28-.14-.43-.08-.17.07-.15.25-.36.56-.48.71-.82.58-1.02,1.02-.37.83.45,1.54,0,2.23-.2.3-.43.29-.52.61-.1.38.19.54.17,1.07-.01.49-.31.63-.23.93.05.17.22.39.82.55"/>
    <path class="cls-2" d="M79.9,42.03c.27-.78.21-1.02.1-1.1-.12-.09-.33-.07-.47,0-.51.25-.29,1.1-.71,1.32-.37.19-.77-.34-1.14-.22-.31.1-.59.66-.5,2.66"/>
    <path class="cls-2" d="M94.21,58.84c.01-.48-.05-1.19-.47-1.84-.39-.61-.69-.53-1.16-1.21-.61-.87-.36-1.32-.98-1.91-.47-.44-.71-.29-.98-.7-.41-.64.05-1.25-.33-1.63-.32-.33-.79,0-1.49-.19-.82-.22-.86-.85-1.58-1.44-1.58-1.29-3.5.01-4.59-1.28-.37-.44-.44-.94-1-1.15-.46-.18-.75.03-1.3-.08-.35-.07-.85-.29-1.37-.94"/>
    <path class="cls-2" d="M80.39,44.26c1.64-.29,2.5.06,3,.44.35.27.34.43.77.74.81.59,1.49.51,2.43.8.79.24,1.19.56,2.08,1.15,2.77,1.83,8.9,5.31,10.69,6.13.18.08.73.33,1.35.81.49.38.82.76,1.02,1"/>
    <path class="cls-2" d="M83.53,38.74c1.6.65,4.08,1.71,7.03,3.24,3.29,1.71,4.58,2.66,7.56,4.13,1.7.84,4.23,1.99,7.49,3.09"/>
    <path class="cls-2" d="M84.96,32.38c3.39,1.25,7.03,2.77,10.86,4.62,4.45,2.16,8.4,4.41,11.86,6.6"/>
    <path class="cls-2" d="M87.18,28.88c3.77,1.98,6.96,3.28,9.2,4.09,3.31,1.21,5.74,1.82,8.97,3.75,1.97,1.18,3.44,2.37,4.38,3.21"/>
    <path class="cls-2" d="M86.37,50.14c-.45-.05-1.24-.07-1.86.41-.54.42-.68,1.02-.91,2.1-.23,1.08-.47,2.31-.7,3.65"/>
    <path class="cls-2" d="M89.48,52.42c-.4-.09-1.06-.2-1.86-.08-.61.09-1.31.2-1.49.62-.19.45.35.88,1.12,2.03,1.19,1.8.96,2.37,1.95,3.36.37.37.97.86,1.95,1.23"/>
    <path class="cls-2" d="M82.4,30.9c.08-.04.69-.32,1.32,0,.2.1.37.33.7.76.23.29.41.55.53.72"/>
    <path class="cls-2" d="M83.53,38.74c-.77-.01-1.19-.25-1.44-.47-.23-.21-.38-.49-.79-.7-.24-.12-.46-.16-.61-.18"/>
    <path class="cls-2" d="M78.3,39.65c-.49,1.19-.35,1.77-.13,2.09.31.44.88.5,1.35,1.21.19.28.28.55.33.71"/>
    <path class="cls-2" d="M78.2,45.96c.26.17.52.34.77.52"/>
    <path class="cls-2" d="M87.08,22.94c.25.52.55.82.78,1.01.64.51,1.26.5,1.48.99.12.27.06.57,0,.76"/>
    <path class="cls-2" d="M89.44,25.51c1.52.23,3.9.68,6.68,1.68,2.53.91,3.99,1.77,8.87,4.37,1.6.85,4.08,2.16,7.17,3.77"/>
    <path class="cls-2" d="M95.25,21.35c3.15,1.34,6.38,2.79,9.68,4.35,3.75,1.78,7.33,3.58,10.73,5.38"/>
    <path class="cls-2" d="M94.82,91.57c.41.18,1.32.51,2.47.36,1.65-.22,2.64-1.27,2.9-1.57"/>
    <path class="cls-2" d="M97.42,88.81v2.45"/>
    <path class="cls-2" d="M96.71,89.23c-.32.56-.64,1.11-.97,1.67"/>
    <path class="cls-2" d="M98.26,89.96c-.32-.56-.42-.88-.32-.97.14-.13.71.22,1.7,1.06-.11.16-.27.36-.5.56-.45.38-.92.52-1.19.57"/>
    <path class="cls-2" d="M106.51,46.04c.31.21.8.55,1.4.98,3.64,2.62,4.6,3.83,6.93,5.12.71.39,1.8.93,3.24,1.4"/>
    <path class="cls-2" d="M118.3,53.37c.24-.25.77-.01,1.01-.36.26-.37.65-.29.87-.58.31-.42,1.04-.72,1.41.12.16.35-.05.49,0,1.18.07.99.25,1.2.15,1.85-.06.39-.25,1.13-.91,1.14-.7,0-3.15-2.71-2.53-3.35Z"/>
    <path class="cls-2" d="M121.52,53.04c-.09,0-1.52.11-1.61.65-.01.08,0,.16.07.29.39.72,1.58.94,1.87.99"/>
  </g>
</svg>