<?xml version="1.0" encoding="UTF-8"?>
<svg id="Layer_1" xmlns="http://www.w3.org/2000/svg" version="1.1" viewBox="0 0 160 160">
  <!-- Generator: Adobe Illustrator 29.5.1, SVG Export Plug-In . SVG Version: 2.1.0 Build 141)  -->
  <defs>
    <style>
      .st0 {
        fill: none;
        stroke: #fff;
        stroke-miterlimit: 10;
      }
    </style>
  </defs>
  <g id="Layer_2">
    <path class="st0" d="M30.53,37.96s-.74-.15-.89-.12c-.14.04.34-.56-.3-.43-.41.08-1.12-.05-1.24-.16-.21-.2-.12-.21-.16-.43-.13-.57.23-.71-.65-.47-.88.25-1,.07-1,.07-.35-.13-.19-1.13.69-1.96.36-.34,5.19-.99,7.3-.34.84.26,1.51.81,2.05,1.44.44.5,1.59,1.21,4.47,2.01.44.13,2.85.14,2.92.16,1.83.67,0,0,4.58.85.04,0,0-.74.02-.75.12-.09-3.19-4.62-2.97-9.99.19-4.59,3.01-8.08,4.18-9.07,1.02-.86,5.48-4.68,11.94-4.23,6.11.42,12.14,4.51,13.1,9.16.82,3.99,1.05,9.89,0,10.62-.44.3,1.06,1.49,2.42,1.87,1.61.46,3.27-.02,4.91-.5,1.95-.56,3.37-.64,6.93-.07,7.87,1.27,11.52,6.72,21.21,9.18,5.92,1.49,7.19.16,14.74,2.04,1.55.39,4.68,1.61,8.21,1.37.83-.06,1.52-.19,2.77-.12,2.81.14,2.33.43,3.35.37.56-.04,1,0,1.62-.53.54-.46,1.82-.53,2.23-.32.27.14,1.19.67,1.35.91.08.13.28.18.4.07.37-.34,1.59-.42,2.39-.46.56-.02,2.23.77,2.54,1.19.5.67,1.52,1.6,1.24,1.2,0,0,1.9.63,2.09.84.28.32.09.02.51.79.22.42.23.89.21,1.47-.06,1.51.28.83-.36,1.51-.39.3-1.65.34-1.83.32-2.47.06-2.86.26-4.39.26-.69,0-2.05-.54-3.69-.77-2.57-.39-4.69.05-9.04.83-4.54.82-4.37.96-8,1.49-.83.13-4.94.25-10.07.43-3.9-1.51-9.04-2.74-12.5-3.74-1.47-.42,2.32,2.98,3.9,5.31,1.42,2.11,10.16,20.18,8.21,22.2-1.45,1.49-3.56,1.51-6.89,3.2-1.96.99-1.79,2.14-3.65,3-2.32,1.07-4.67.84-4.75,1.48-.06.42.92.5,1.27,1.31.48,1.09-.78,2.07-1.31,3.69-.57,1.77.63,1.31.19,3.12-1.02,4.12-6.62,10.81-10.12,12.28-1.55.64-6.4-.08-9.07-.15-1.39-.04-2.52-.05-3.27-.06.07,8.17.25,14.16.41,15.44,0,.02.08.48.25,1.39.18,1.03.27,1.55.58,2.02.23.34.5.57.69.71.05.95.09,1.9.14,2.85.46.43.93.93,1.09,1.52,1.18,4.73,1.2,7.47.85,7.47-.74.01-4.13.48-9.69.14-4.07-.25-7.44-.06-9.69.14-.36-.36-1.55-1.17-1.53-2.15.04-1.33-.67-2.16,2.57-4.55,1.17-.86,1.97-.44,2.98-.91,1.6-.74,2.63-2.76,2.9-7.35.46-7.73-5.57-15.3-5.46-18.27-.53-.35-1.94-1.25-3.64-1.06-1.02.12-1.69.57-1.93.7-1.28.72-7.56-1.38-11.88-3.02-.47-.18-.49-1.39-.57-1.84-2.14-1.89-9.46-4.35-10.54-5.45,0,0-4.26-.44-4.97.68-1.04,1.65,3.57,3.93,5.14,9.55.72,2.59-.14,2.56.58,8.11.33,2.52.75,4.32,1.41,7.2.54,2.32,1.31,5.36,2.39,8.91l1.45-.09c1.66,5.07,1.38,4.23,3.04,9.29-2.26,1.2-4.19,1.63-5.48,1.82-4.6.67-6.65-1.09-10.68.07-1.91.55-1.45.95-3.84,1.77-1.98.69-3.61.88-8.87,1.02-8.18.22-7.7-.46-8.69-.57-1.25-.15-1.23-2.52-.74-3.33.16-.28.7-1.16,1.79-1.59,1.51-.61,2.52.26,3.7-.48.63-.4.89-.3,1.49-.7,1.16-.75,2.21.22,3.47-.6,2.08-1.33,5.21-3.29,7.12-4.47.6-.36.11-1.28.69-1.51.35-.13.55-.3.81-.47.47-.3.05-.78.61-1.42.3-.34,1.65-.92,2.45-1.46,1.39-.92.16-5.35-2.81-10.85-4.02-7.39-8.03-11.87-7.33-15.14.07-.35-.36-1.41-.95-2.46-.61-1.1-1.58-1.88-2.16-2.49-1.63-1.67-3.13-11.28,2.81-13.59,1.63-.63,2.74.07,5.3-.99,2.03-.84,1.96-1.54,3.64-2.24,0,0,6.5-.29,8.29.22,3.2.93,3.67,2.07,6.47,2.19,1.07.05,1.9-.08,3.15.3,1.52.47,2.57,1.35,3.23,2.04l6.37.07c-.12-.32-.55-1.58.08-2.95.82-1.79,2.73-2.31,2.98-2.38-.47-2.08-.93-4.17-1.4-6.25.53-.28,1.04-.57,1.56-.85v-1.52c-.58.16-1.49-.08-2.28-.55-.97-.57-3.07-5.08-3.68-7.95-.48-2.26-1.69-4.74-1.48-8.15.13-1.95-.93-3.77-2.59-5-3.49-2.58-3.41-6.29-8.57-8.03-1.66-.56-4.03-2.78-4.89-3.29-.49-.12-1.03-.07-1.18-.23-.06-.06-.51-.33-.51-.33-.08-.3-.78-.19-.71-.26-.4-.19-.7.16-.86,0-.23-.22-.39-.29-.65-.3v.06Z"/>
  </g>
</svg>