<?xml version="1.0" encoding="UTF-8"?>
<svg id="Layer_1" xmlns="http://www.w3.org/2000/svg" version="1.1" viewBox="0 0 160 160">
  <!-- Generator: Adobe Illustrator 29.5.1, SVG Export Plug-In . SVG Version: 2.1.0 Build 141)  -->
  <defs>
    <style>
      .st0 {
        fill: none;
        stroke: #000;
        stroke-miterlimit: 10;
      }
    </style>
  </defs>
  <g id="Layer_2">
    <path class="st0" d="M31.52,37.14s-.7-.18-.88-.12c-.12,0,.35-.55-.29-.42-.41.06-1.11,0-1.23-.18-.23-.18-.12-.24-.18-.42-.12-.61.23-.73-.64-.49s-1,.06-1,.06c-.35-.12-.18-1.15.7-2,.35-.36,5.1-1.03,7.15-.36.82.24,1.47.85,1.99,1.46.41.49,1.58,1.21,4.4,2.06.41.12,2.81.12,2.87.18,1.82.67,0,0,4.51.85v-.79c.12-.12-3.11-4.73-2.93-10.19.18-4.67,2.99-8.25,4.1-9.28,1-.91,5.39-4.79,11.72-4.31,5.98.42,11.96,4.61,12.89,9.34.82,4.06,1.06,10.13,0,10.86-.41.3,1.06,1.52,2.4,1.88,1.58.49,3.22,0,4.81-.49,1.93-.55,3.34-.67,6.8-.06,7.74,1.27,11.31,6.85,20.87,9.4,5.8,1.52,7.09.18,14.48,2.06,1.52.36,4.63,1.64,8.09,1.4.82,0,1.47-.18,2.7-.12,2.75.12,2.29.42,3.28.36.53,0,1,0,1.58-.55.53-.49,1.82-.55,2.17-.3.29.12,1.17.67,1.35.91.06.12.29.18.41.06.35-.36,1.58-.42,2.34-.49.53,0,2.17.79,2.52,1.21.47.67,1.47,1.64,1.23,1.21,0,0,1.88.67,2.05.85.29.3.12,0,.53.79.23.42.23.91.23,1.52,0,1.52.29.85-.35,1.52-.35.3-1.64.36-1.82.3-2.46,0-2.81.24-4.34.24-.7,0-1.99-.55-3.63-.79-2.52-.36-4.63,0-8.91.85-4.45.85-4.28.97-7.85,1.52-.82.12-4.86.24-9.91.42-3.81-1.52-8.91-2.79-12.31-3.82-1.47-.42,2.29,3.03,3.81,5.46,1.41,2.18,9.96,20.62,8.09,22.69-1.41,1.52-3.52,1.52-6.8,3.28-1.93,1.03-1.76,2.18-3.58,3.09-2.29,1.09-4.57.85-4.69,1.52,0,.42.88.49,1.23,1.33.47,1.09-.76,2.12-1.29,3.76-.59,1.82.64,1.33.18,3.21-1,4.19-6.51,11.04-9.96,12.56-1.52.67-6.27-.06-8.91-.18h-3.22c.06,8.37.23,14.5.41,15.77,0,0,.06.49.23,1.4.18,1.03.29,1.58.59,2.06.23.36.47.61.7.73,0,.97.12,1.94.12,2.91.47.42.94.97,1.06,1.58,1.17,4.85,1.17,7.64.82,7.64-.7,0-4.04.49-9.55.12-3.99-.24-7.33,0-9.55.12-.35-.36-1.52-1.21-1.52-2.18,0-1.33-.64-2.18,2.52-4.67,1.17-.91,1.93-.42,2.93-.91,1.58-.73,2.58-2.79,2.87-7.52.47-7.89-5.45-15.65-5.39-18.68-.53-.36-1.93-1.27-3.58-1.09-1,.12-1.64.61-1.88.73-1.29.73-7.44-1.4-11.66-3.09-.47-.18-.47-1.4-.59-1.88-2.11-1.94-9.32-4.43-10.37-5.58,0,0-4.16-.42-4.86.67-1,1.7,3.52,4,5.04,9.77.7,2.67-.12,2.61.59,8.31.29,2.61.76,4.43,1.41,7.34.53,2.37,1.29,5.46,2.34,9.1l1.41-.12c1.64,5.16,1.35,4.31,2.99,9.52-2.23,1.21-4.1,1.7-5.39,1.88-4.51.67-6.56-1.09-10.49.06-1.88.55-1.41.97-3.75,1.82-1.93.73-3.58.91-8.73,1.03-8.03.24-7.56-.49-8.56-.61-1.23-.18-1.23-2.61-.7-3.4.18-.3.7-1.15,1.76-1.64,1.47-.61,2.46.24,3.63-.49.64-.42.88-.3,1.47-.73,1.11-.79,2.17.24,3.4-.61,2.05-1.33,5.1-3.34,6.97-4.55.59-.36.12-1.33.7-1.52.35-.12.53-.3.82-.49.47-.3,0-.79.59-1.46.29-.36,1.64-.97,2.4-1.52,1.35-.97.18-5.46-2.75-11.1-3.93-7.58-7.91-12.13-7.21-15.47.06-.36-.35-1.46-.94-2.55-.59-1.09-1.52-1.94-2.11-2.55-1.58-1.7-3.05-11.52,2.75-13.89,1.58-.67,2.7.06,5.22-1.03,1.99-.85,1.93-1.58,3.58-2.3,0,0,6.39-.3,8.15.24,3.17.97,3.58,2.12,6.33,2.24,1.06,0,1.88-.06,3.11.3,1.47.49,2.52,1.4,3.17,2.06h6.27s-.53-1.52.06-2.97c.82-1.82,2.7-2.37,2.93-2.43-.47-2.12-.94-4.25-1.35-6.37.53-.3,1-.61,1.52-.85v-1.58c-.59.18-1.47-.06-2.23-.55-.94-.61-2.99-5.22-3.63-8.13-.47-2.3-1.64-4.85-1.47-8.31.12-2-.94-3.88-2.52-5.1-3.46-2.61-3.34-6.43-8.44-8.19-1.64-.55-3.99-2.85-4.81-3.34-.47-.12-1-.06-1.17-.24l-.53-.36c-.06-.3-.76-.18-.7-.24-.41-.18-.7.18-.82,0-.23-.24-.35-.3-.64-.3h0l.29.3Z"/>
  </g>
</svg>