<?xml version="1.0" encoding="UTF-8"?>
<svg id="Layer_1" xmlns="http://www.w3.org/2000/svg" version="1.1" viewBox="0 0 400 100">
  <!-- Generator: Adobe Illustrator 29.5.1, SVG Export Plug-In . SVG Version: 2.1.0 Build 141)  -->
  <defs>
    <style>
      .st0 {
        fill: none;
        stroke: #000;
        stroke-miterlimit: 10;
        stroke-width: 2px;
      }

      .st1 {
        font-family: Alata-Regular, Alata;
        font-size: 48px;
      }
    </style>
  </defs>
  <text class="st1" transform="translate(139.78 64.19)"><tspan x="0" y="0">Cloud Log</tspan></text>
  <g id="Layer_2">
    <path class="st0" d="M35.51,23.01s-.47-.12-.59-.08c-.08,0,.24-.35-.2-.28-.28.04-.75,0-.83-.12-.16-.12-.08-.16-.12-.28-.08-.39.16-.47-.43-.31s-.67.04-.67.04c-.24-.08-.12-.75.47-1.3.24-.24,3.42-.67,4.8-.24.55.16.98.55,1.34.94.28.31,1.06.79,2.95,1.34.28.08,1.89.08,1.93.12,1.22.43,0,0,3.03.55v-.51c.08-.08-2.08-3.07-1.97-6.6.12-3.03,2.01-5.35,2.75-6.02.67-.59,3.62-3.11,7.86-2.79,4.01.28,8.02,2.99,8.65,6.05.55,2.63.71,6.57,0,7.04-.28.2.71.98,1.61,1.22,1.06.31,2.16,0,3.22-.31,1.3-.35,2.24-.43,4.56-.04,5.19.83,7.59,4.44,14,6.09,3.89.98,4.76.12,9.71,1.34,1.02.24,3.11,1.06,5.43.9.55,0,.98-.12,1.81-.08,1.85.08,1.53.28,2.2.24.35,0,.67,0,1.06-.35.35-.31,1.22-.35,1.45-.2.2.08.79.43.9.59.04.08.2.12.28.04.24-.24,1.06-.28,1.57-.31.35,0,1.45.51,1.69.79.31.43.98,1.06.83.79,0,0,1.26.43,1.38.55.2.2.08,0,.35.51.16.28.16.59.16.98,0,.98.2.55-.24.98-.24.2-1.1.24-1.22.2-1.65,0-1.89.16-2.91.16-.47,0-1.34-.35-2.44-.51-1.69-.24-3.11,0-5.98.55-2.99.55-2.87.63-5.27.98-.55.08-3.26.16-6.64.28-2.56-.98-5.98-1.81-8.26-2.48-.98-.28,1.53,1.97,2.56,3.54.94,1.42,6.68,13.37,5.43,14.7-.94.98-2.36.98-4.56,2.12-1.3.67-1.18,1.42-2.4,2.01-1.53.71-3.07.55-3.15.98,0,.28.59.31.83.86.31.71-.51,1.38-.86,2.44-.39,1.18.43.86.12,2.08-.67,2.71-4.36,7.16-6.68,8.14-1.02.43-4.21-.04-5.98-.12h-2.16c.04,5.43.16,9.4.28,10.22,0,0,.04.31.16.9.12.67.2,1.02.39,1.34.16.24.31.39.47.47,0,.63.08,1.26.08,1.89.31.28.63.63.71,1.02.79,3.15.79,4.95.55,4.95-.47,0-2.71.31-6.41.08-2.67-.16-4.91,0-6.41.08-.24-.24-1.02-.79-1.02-1.42,0-.86-.43-1.42,1.69-3.03.79-.59,1.3-.28,1.97-.59,1.06-.47,1.73-1.81,1.93-4.88.31-5.11-3.66-10.14-3.62-12.11-.35-.24-1.3-.83-2.4-.71-.67.08-1.1.39-1.26.47-.86.47-4.99-.9-7.82-2.01-.31-.12-.31-.9-.39-1.22-1.42-1.26-6.25-2.87-6.96-3.62,0,0-2.79-.28-3.26.43-.67,1.1,2.36,2.59,3.38,6.33.47,1.73-.08,1.69.39,5.39.2,1.69.51,2.87.94,4.76.35,1.53.86,3.54,1.57,5.9l.94-.08c1.1,3.34.9,2.79,2.01,6.17-1.49.79-2.75,1.1-3.62,1.22-3.03.43-4.4-.71-7.04.04-1.26.35-.94.63-2.52,1.18-1.3.47-2.4.59-5.86.67-5.39.16-5.07-.31-5.74-.39-.83-.12-.83-1.69-.47-2.2.12-.2.47-.75,1.18-1.06.98-.39,1.65.16,2.44-.31.43-.28.59-.2.98-.47.75-.51,1.45.16,2.28-.39,1.38-.86,3.42-2.16,4.68-2.95.39-.24.08-.86.47-.98.24-.08.35-.2.55-.31.31-.2,0-.51.39-.94.2-.24,1.1-.63,1.61-.98.9-.63.12-3.54-1.85-7.19-2.63-4.91-5.31-7.86-4.84-10.03.04-.24-.24-.94-.63-1.65-.39-.71-1.02-1.26-1.42-1.65-1.06-1.1-2.04-7.47,1.85-9,1.06-.43,1.81.04,3.5-.67,1.34-.55,1.3-1.02,2.4-1.49,0,0,4.29-.2,5.46.16,2.12.63,2.4,1.38,4.25,1.45.71,0,1.26-.04,2.08.2.98.31,1.69.9,2.12,1.34h4.21s-.35-.98.04-1.93c.55-1.18,1.81-1.53,1.97-1.57-.31-1.38-.63-2.75-.9-4.13.35-.2.67-.39,1.02-.55v-1.02c-.39.12-.98-.04-1.49-.35-.63-.39-2.01-3.38-2.44-5.27-.31-1.49-1.1-3.15-.98-5.39.08-1.3-.63-2.52-1.69-3.3-2.32-1.69-2.24-4.17-5.66-5.31-1.1-.35-2.67-1.85-3.22-2.16-.31-.08-.67-.04-.79-.16l-.35-.24c-.04-.2-.51-.12-.47-.16-.28-.12-.47.12-.55,0-.16-.16-.24-.2-.43-.2h0l.2.2Z"/>
  </g>
</svg>