<?xml version="1.0" encoding="UTF-8"?>
<svg xmlns="http://www.w3.org/2000/svg" version="1.1" viewBox="0 0 32 32">
  <!-- Generator: Adobe Illustrator 29.5.1, SVG Export Plug-In . SVG Version: 2.1.0 Build 141)  -->
  <defs>
    <style>
      .st0, .st1 {
        isolation: isolate;
      }

      .st2 {
        fill: #fff;
      }

      .st3 {
        fill: none;
        stroke: #000;
        stroke-miterlimit: 10;
        stroke-width: .25px;
      }

      .st1 {
        font-family: Alata-Regular, Alata;
        font-size: 5.51px;
        letter-spacing: .03em;
      }
    </style>
  </defs>
  <g id="Layer_2">
    <rect class="st2" x="0" y="0" width="32" height="32" rx="6.85" ry="6.85"/>
  </g>
  <g id="Layer_1">
    <g id="Layer_3">
      <g class="st0">
        <g class="st0">
          <text class="st1" transform="translate(3.56 28.67)"><tspan x="0" y="0">Cloud Log</tspan></text>
        </g>
      </g>
    </g>
    <g id="Layer_21" data-name="Layer_2">
      <path class="st3" d="M5.79,4.93s-.12-.03-.15-.02c-.02,0,.06-.09-.05-.07-.07.01-.19,0-.21-.03-.04-.03-.02-.04-.03-.07-.02-.1.04-.12-.11-.08s-.17.01-.17.01c-.06-.02-.03-.19.12-.33.06-.06.87-.17,1.22-.06.14.04.25.14.34.24.07.08.27.2.75.34.07.02.48.02.49.03.31.11,0,0,.77.14v-.13s-.53-.78-.5-1.68c.03-.77.51-1.36.7-1.53.17-.15.92-.79,2-.71,1.02.07,2.04.76,2.2,1.54.14.67.18,1.67,0,1.79-.07.05.18.25.41.31.27.08.55,0,.82-.08.33-.09.57-.11,1.16-.01,1.32.21,1.93,1.13,3.56,1.55.99.25,1.21.03,2.47.34.26.06.79.27,1.38.23.14,0,.25-.03.46-.02.47.02.39.07.56.06.09,0,.17,0,.27-.09.09-.08.31-.09.37-.05.05.02.2.11.23.15.01.02.05.03.07.01.06-.06.27-.07.4-.08.09,0,.37.13.43.2.08.11.25.27.21.2,0,0,.32.11.35.14.05.05.02,0,.09.13.04.07.04.15.04.25,0,.25.05.14-.06.25-.06.05-.28.06-.31.05-.42,0-.48.04-.74.04-.12,0-.34-.09-.62-.13-.43-.06-.79,0-1.52.14-.76.14-.73.16-1.34.25-.14.02-.83.04-1.69.07-.65-.25-1.52-.46-2.1-.63-.25-.07.39.5.65.9.24.36,1.7,3.4,1.38,3.74-.24.25-.6.25-1.16.54-.33.17-.3.36-.61.51-.39.18-.78.14-.8.25,0,.07.15.08.21.22.08.18-.13.35-.22.62-.1.3.11.22.03.53-.17.69-1.11,1.82-1.7,2.07-.26.11-1.07-.01-1.52-.03h-.55c.01,1.38.04,2.39.07,2.6,0,0,.01.08.04.23.03.17.05.26.1.34.04.06.08.1.12.12,0,.16.02.32.02.48.08.07.16.16.18.26.2.8.2,1.26.14,1.26-.12,0-.69.08-1.63.02-.68-.04-1.25,0-1.63.02-.06-.06-.26-.2-.26-.36,0-.22-.11-.36.43-.77.2-.15.33-.07.5-.15.27-.12.44-.46.49-1.24.08-1.3-.93-2.58-.92-3.08-.09-.06-.33-.21-.61-.18-.17.02-.28.1-.32.12-.22.12-1.27-.23-1.99-.51-.08-.03-.08-.23-.1-.31-.36-.32-1.59-.73-1.77-.92,0,0-.71-.07-.83.11-.17.28.6.66.86,1.61.12.44-.02.43.1,1.37.05.43.13.73.24,1.21.09.39.22.9.4,1.5l.24-.02c.28.85.23.71.51,1.57-.38.2-.7.28-.92.31-.77.11-1.12-.18-1.79.01-.32.09-.24.16-.64.3-.33.12-.61.15-1.49.17-1.37.04-1.29-.08-1.46-.1-.21-.03-.21-.43-.12-.56.03-.05.12-.19.3-.27.25-.1.42.04.62-.08.11-.07.15-.05.25-.12.19-.13.37.04.58-.1.35-.22.87-.55,1.19-.75.1-.06.02-.22.12-.25.06-.02.09-.05.14-.08.08-.05,0-.13.1-.24.05-.06.28-.16.41-.25.23-.16.03-.9-.47-1.83-.67-1.25-1.35-2-1.23-2.55,0-.06-.06-.24-.16-.42-.1-.18-.26-.32-.36-.42-.27-.28-.52-1.9.47-2.29.27-.11.46.01.89-.17.34-.14.33-.26.61-.38,0,0,1.09-.05,1.39.04.54.16.61.35,1.08.37.18,0,.32-.01.53.05.25.08.43.23.54.34h1.07s-.09-.25.01-.49c.14-.3.46-.39.5-.4-.08-.35-.16-.7-.23-1.05.09-.05.17-.1.26-.14v-.26c-.1.03-.25-.01-.38-.09-.16-.1-.51-.86-.62-1.34-.08-.38-.28-.8-.25-1.37.02-.33-.16-.64-.43-.84-.59-.43-.57-1.06-1.44-1.35-.28-.09-.68-.47-.82-.55-.08-.02-.17-.01-.2-.04l-.09-.06c-.01-.05-.13-.03-.12-.04-.07-.03-.12.03-.14,0-.04-.04-.06-.05-.11-.05h0l.05.05Z"/>
    </g>
  </g>
</svg>