<?xml version="1.0" encoding="UTF-8"?>
<svg id="Layer_1" data-name="Layer 1" xmlns="http://www.w3.org/2000/svg" viewBox="0 0 64 64">
  <defs>
    <style>
      .cls-1 {
        fill: #e2b034;
      }

      .cls-2 {
        fill: #565555;
      }

      .cls-3 {
        fill: #44c116;
      }

      .cls-4 {
        fill: #fff;
      }

      .cls-5 {
        fill: #c10c0c;
      }
    </style>
  </defs>
  <g>
    <path class="cls-4" d="M32,63.88C14.42,63.88.12,49.58.12,32S14.42.12,32,.12s31.88,14.3,31.88,31.88-14.3,31.88-31.88,31.88Z"/>
    <path d="M32,.25c17.51,0,31.75,14.24,31.75,31.75s-14.24,31.75-31.75,31.75S.25,49.51.25,32,14.49.25,32,.25M32,0C14.33,0,0,14.33,0,32s14.33,32,32,32,32-14.33,32-32S49.67,0,32,0h0Z"/>
  </g>
  <g>
    <path d="M10.34,18.59v-.02c0-2.39,1.79-4.34,4.33-4.34,1.55,0,2.48.54,3.29,1.31l-.95,1.09c-.67-.62-1.39-1.04-2.35-1.04-1.61,0-2.77,1.32-2.77,2.96v.02c0,1.64,1.16,2.99,2.77,2.99,1.03,0,1.69-.42,2.41-1.09l.95.96c-.88.91-1.83,1.49-3.41,1.49-2.45,0-4.27-1.91-4.27-4.32Z"/>
    <path d="M18.96,18.59v-.02c0-2.36,1.82-4.34,4.4-4.34s4.38,1.95,4.38,4.32v.02c0,2.36-1.82,4.34-4.4,4.34s-4.38-1.96-4.38-4.32ZM26.19,18.59v-.02c0-1.63-1.19-2.99-2.85-2.99s-2.83,1.33-2.83,2.96v.02c0,1.63,1.19,2.99,2.85,2.99s2.83-1.33,2.83-2.96Z"/>
    <path d="M29.53,14.37h3.13c2.64,0,4.46,1.81,4.46,4.17v.02c0,2.36-1.82,4.2-4.46,4.2h-3.13v-8.4ZM32.66,21.42c1.76,0,2.91-1.19,2.91-2.83v-.02c0-1.64-1.15-2.85-2.91-2.85h-1.65v5.71h1.65Z"/>
    <path d="M38.92,14.37h6.22v1.32h-4.75v2.18h4.21v1.32h-4.21v2.25h4.81v1.32h-6.29v-8.4Z"/>
    <path d="M51.74,22.06c0-.18.02-.66.02-.86,0-.94-.36-1.32-1.36-1.32h-.31v-1.1h.31c1,0,1.36-.38,1.36-1.32,0-.2-.02-.68-.02-.86,0-1.24.54-2,2.72-2.4l.25.96c-1.44.4-1.63.77-1.63,1.64,0,.24.02.64.02.89,0,.94-.46,1.39-1.25,1.64.8.26,1.25.71,1.25,1.64,0,.25-.02.65-.02.89,0,.88.19,1.25,1.63,1.64l-.25.96c-2.18-.4-2.72-1.16-2.72-2.4Z"/>
  </g>
  <g>
    <path d="M17.21,34.63v-1.29l5.73-2.65v1.38l-4.29,1.91,4.29,1.92v1.39l-5.73-2.65Z"/>
    <path d="M25.09,35.91l4.28-1.91-4.28-1.92v-1.39l5.73,2.65v1.29l-5.73,2.65v-1.38Z"/>
  </g>
  <path d="M10.24,53.07c1.44-.4,1.63-.77,1.63-1.64,0-.24-.02-.64-.02-.89,0-.94.46-1.39,1.25-1.64-.8-.26-1.25-.71-1.25-1.64,0-.25.02-.65.02-.89,0-.88-.19-1.25-1.63-1.64l.25-.96c2.18.4,2.72,1.16,2.72,2.4,0,.18-.02.66-.02.86,0,.94.36,1.32,1.36,1.32h.31v1.1h-.31c-1,0-1.36.38-1.36,1.32,0,.2.02.68.02.86,0,1.24-.54,2-2.72,2.4l-.25-.96Z"/>
  <path class="cls-2" d="M8.89,10.28h46.22c-1.61-1.93-4.84-5.28-10.02-7.66C40.08.31,35.56,0,33.07,0c-2.73-.06-7.05.2-11.93,2.03-6.23,2.34-10.25,6.09-12.25,8.25Z"/>
  <circle class="cls-5" cx="17.03" cy="7.01" r="1.88"/>
  <circle class="cls-1" cx="22.72" cy="7.11" r="1.88"/>
  <circle class="cls-3" cx="28.41" cy="7.01" r="1.88"/>
</svg>