<?xml version="1.0" encoding="UTF-8"?>
<svg xmlns="http://www.w3.org/2000/svg" viewBox="0 0 64 64">
  <defs>
    <style>
      .cls-1 {
        fill: #69bd3d;
      }

      .cls-2 {
        fill: #e2b034;
      }

      .cls-3 {
        fill: #565555;
      }

      .cls-4 {
        fill: #fff;
      }

      .cls-5 {
        fill: #c10c0c;
      }
    </style>
  </defs>
  <g id="Layer_4" data-name="Layer 4">
    <g>
      <path d="M32,63.83C14.45,63.83.17,49.55.17,32S14.45.17,32,.17s31.83,14.28,31.83,31.83-14.28,31.83-31.83,31.83Z"/>
      <path class="cls-4" d="M32,.35c8.45,0,16.4,3.29,22.38,9.27,5.98,5.98,9.27,13.93,9.27,22.38s-3.29,16.4-9.27,22.38c-5.98,5.98-13.93,9.27-22.38,9.27C14.55,63.65.35,49.45.35,32,.35,23.55,3.64,15.6,9.62,9.62,15.6,3.64,23.55.35,32,.35M32,0C14.33,0,0,14.33,0,32c0,17.67,14.33,32,32,32,17.67,0,32-14.33,32-32,0-17.67-14.33-32-32-32h0Z"/>
    </g>
  </g>
  <g id="Layer_3" data-name="Layer 3">
    <path class="cls-3" d="M9.04,10.21h45.91C52.68,7.91,45.47.48,32.42.3,18.85.11,11.52,7.9,9.04,10.21Z"/>
    <path class="cls-1" d="M28.91,9.28c1.19,0,2.16-.96,2.16-2.16s-.96-2.16-2.16-2.16-2.16.96-2.16,2.16.96,2.16,2.16,2.16Z"/>
    <path class="cls-2" d="M23.17,9.28c1.19,0,2.16-.96,2.16-2.16s-.96-2.16-2.16-2.16-2.16.96-2.16,2.16.96,2.16,2.16,2.16Z"/>
    <path class="cls-5" d="M17.43,9.28c1.19,0,2.16-.96,2.16-2.16s-.96-2.16-2.16-2.16-2.16.96-2.16,2.16.96,2.16,2.16,2.16Z"/>
    <path class="cls-4" d="M9.9,18.45v-.02c0-2.43,1.82-4.41,4.4-4.41,1.57,0,2.52.55,3.34,1.33l-.96,1.11c-.68-.63-1.41-1.06-2.39-1.06-1.63,0-2.81,1.34-2.81,3.01v.02c0,1.67,1.18,3.04,2.81,3.04,1.05,0,1.72-.43,2.45-1.11l.96.97c-.89.92-1.86,1.51-3.46,1.51-2.49,0-4.34-1.94-4.34-4.39h0Z"/>
    <path class="cls-4" d="M18.65,18.45v-.02c0-2.4,1.85-4.41,4.47-4.41s4.45,1.98,4.45,4.39v.02c0,2.4-1.85,4.41-4.47,4.41s-4.45-1.99-4.45-4.39ZM25.99,18.45v-.02c0-1.66-1.21-3.04-2.89-3.04s-2.87,1.35-2.87,3.01v.02c0,1.66,1.21,3.04,2.89,3.04s2.87-1.35,2.87-3.01Z"/>
    <path class="cls-4" d="M29.38,14.17h3.18c2.68,0,4.53,1.84,4.53,4.23v.02c0,2.4-1.85,4.26-4.53,4.26h-3.18v-8.53h0ZM32.56,21.32c1.79,0,2.95-1.21,2.95-2.87v-.02c0-1.67-1.17-2.89-2.95-2.89h-1.68v5.8h1.68Z"/>
    <path class="cls-4" d="M38.92,14.17h6.32v1.34h-4.82v2.21h4.27v1.34h-4.27v2.28h4.88v1.34h-6.39v-8.53h.01Z"/>
    <path class="cls-4" d="M51.93,21.97c0-.18.02-.67.02-.87,0-.95-.37-1.34-1.38-1.34h-.31v-1.12h.31c1.02,0,1.38-.39,1.38-1.34,0-.2-.02-.69-.02-.87,0-1.26.55-2.03,2.76-2.44l.25.97c-1.46.41-1.66.78-1.66,1.67,0,.24.02.65.02.9,0,.95-.47,1.41-1.27,1.67.81.26,1.27.72,1.27,1.67,0,.25-.02.66-.02.9,0,.89.19,1.27,1.66,1.67l-.25.97c-2.21-.41-2.76-1.18-2.76-2.44Z"/>
    <path class="cls-4" d="M17.4,34.54v-1.25l5.57-2.58v1.34l-4.17,1.86,4.17,1.87v1.35l-5.57-2.58h0Z"/>
    <path class="cls-4" d="M25.06,35.78l4.16-1.86-4.16-1.87v-1.35l5.57,2.58v1.25l-5.57,2.58v-1.34h0Z"/>
    <path class="cls-4" d="M10.49,54.09l-.25-.97c1.46-.4,1.66-.77,1.66-1.67,0-.24-.02-.65-.02-.9,0-.94.46-1.4,1.27-1.67-.8-.25-1.27-.71-1.27-1.67,0-.25.02-.66.02-.9,0-.88-.19-1.26-1.66-1.67l.25-.97c2.21.41,2.76,1.18,2.76,2.44,0,.18-.02.67-.02.87,0,.95.37,1.34,1.38,1.34h.31v1.12h-.31c-1.02,0-1.38.39-1.38,1.34,0,.2.02.69.02.87,0,1.26-.55,2.03-2.76,2.44Z"/>
  </g>
</svg>