<?xml version="1.0" encoding="UTF-8"?>
<svg xmlns="http://www.w3.org/2000/svg" viewBox="0 0 64 64">
  <defs>
    <style>
      .cls-1 {
        fill: #fff;
      }

      .cls-2 {
        fill: none;
        stroke: #fff;
        stroke-miterlimit: 10;
        stroke-width: .15px;
      }
    </style>
  </defs>
  <g id="Layer_4" data-name="Layer 4">
    <g>
      <path d="M32,63.83C14.45,63.83.17,49.55.17,32S14.45.17,32,.17s31.83,14.28,31.83,31.83-14.28,31.83-31.83,31.83Z"/>
      <path class="cls-1" d="M32,.35c17.45,0,31.65,14.2,31.65,31.65s-14.2,31.65-31.65,31.65S.35,49.45.35,32,14.55.35,32,.35M32,0C14.33,0,0,14.33,0,32s14.33,32,32,32,32-14.33,32-32S49.67,0,32,0h0Z"/>
    </g>
  </g>
  <g id="Layer_3" data-name="Layer 3">
    <path class="cls-2" d="M5.87,13.52c2.19,1.41,4.97,3.68,5.02,6.56.04,2.47-1.97,2.97-3.26,6.61-1.5,4.27.59,5.48-.61,11.03-.92,4.26-2.48,5.11-1.89,7.01.53,1.72,2.66,3.77,10.16,4.76-2.82-2.34-5.89-5.59-5.27-8.68.6-3.02,4.08-2.84,6.21-6.38,2.8-4.64-.74-9.08-.94-18.56-.1-4.69.66-8.77,1.58-11.99"/>
    <path class="cls-2" d="M8.16,53.35c-.02-.15-.3-2.16.84-3.05,1.25-.98,3.84,2.57,5.34,1.84.74-.36.93-1.54.96-2.65"/>
    <path class="cls-2" d="M42.3,1.7c-4.91,1.79-10.55,4.78-11.83,9.83-.98,3.9,1.56,5.38.72,9.46-1.38,6.67-9.08,7.11-13.47,14.47-1.59,2.66-3.22,7.02-2.43,14.03"/>
    <path class="cls-2" d="M62.74,23.08c-3.87-4.25-6.42-4.63-7.96-4.35-5.7,1.05-3.94,12.55-12.48,18.43-6.31,4.35-12.15,1.42-15.48,6.48-2.62,3.98-.79,8.49-3.18,9.71-2.16,1.1-5.71-1.51-8.35-3.85"/>
    <path class="cls-2" d="M61.55,44.3c-6.51-5.49-9.5-5.78-11.01-4.92-3.07,1.73-.27,8.24-4.05,11.3-3.68,2.98-8.57-1.37-14.49,1.96-3.35,1.89-3.4,4.19-5.9,4.67-3.72.71-7.73-3.57-10.8-7.81"/>
    <path class="cls-2" d="M39.02,63.23c-.86-1.53-2.38-3.64-4.65-4.02-3.35-.55-5.04,3.26-8.53,2.7-2.79-.45-2.52-3.01-6.76-4.53-2.26-.81-4.2-.75-4.47-1.82-.21-.82.78-1.36,1.09-2.95.25-1.27-.1-2.41-.4-3.12"/>
  </g>
  <g id="Layer_1" data-name="Layer 1">
    <rect class="cls-1" x="16.33" y="22.3" width="38.64" height="12.91" transform="translate(-9.89 33.63) rotate(-45)"/>
    <rect x="14.47" y="41.95" width="12.95" height="3.04" transform="translate(36.86 -2.08) rotate(44.99)"/>
  </g>
  <g id="Layer_2" data-name="Layer 2">
    <polyline class="cls-1" points="15.3 39.98 24.43 49.11 15.3 49.5"/>
  </g>
</svg>