<?xml version="1.0" encoding="UTF-8"?>
<svg xmlns="http://www.w3.org/2000/svg" viewBox="0 0 64 64">
  <defs>
    <style>
      .cls-1 {
        fill: #fff;
      }

      .cls-2 {
        fill: none;
        stroke: #fff;
        stroke-miterlimit: 10;
        stroke-width: .15px;
      }
    </style>
  </defs>
  <g id="Layer_1" data-name="Layer 1">
    <g>
      <path d="M32,63.83C14.45,63.83.17,49.55.17,32S14.45.17,32,.17s31.83,14.28,31.83,31.83-14.28,31.83-31.83,31.83Z"/>
      <path class="cls-1" d="M32,.35c17.45,0,31.65,14.2,31.65,31.65s-14.2,31.65-31.65,31.65S.35,49.45.35,32,14.55.35,32,.35M32,0C14.33,0,0,14.33,0,32s14.33,32,32,32,32-14.33,32-32S49.67,0,32,0h0Z"/>
    </g>
  </g>
  <g id="Layer_5" data-name="Layer 5">
    <g>
      <path class="cls-1" d="M58.55,24.63s0,0,0,0h0Z"/>
      <path class="cls-1" d="M61.64,21.78c-.18-.38-.46-.72-.81-.96-.15-.92-.79-1.73-1.69-2.02-.24-.08-.48-.11-.73-.11.13-.65-.16-1.34-.56-1.85-.28-.34-.66-.64-1.11-.66-.02-.05-.04-.1-.07-.15-.19-.3-.47-.56-.76-.78-.3-.23-.65-.42-1.02-.52-.37-.1-.77-.09-1.11.1-.06-.6-.44-1.17-.95-1.49-.4-.25-.87-.38-1.35-.39,0,0,0,0-.01,0-.11-.16-.29-.29-.44-.4-.34-.24-.73-.41-1.14-.47-.45-.07-.92,0-1.33.2-.01-.11-.04-.21-.08-.31-.08-.18-.2-.33-.34-.47-.15-.15-.32-.29-.5-.4-.39-.26-.86-.41-1.33-.34-.03-.04-.07-.08-.1-.11-.15-.15-.32-.29-.49-.41-.34-.24-.72-.38-1.14-.4-.44-.01-.88.09-1.28.28-.11-.31-.35-.57-.61-.78-.26-.21-.56-.37-.89-.47-.36-.11-.74-.15-1.11-.1-.02,0-.03,0-.04.02-.2-.2-.52-.28-.79-.35-.44-.11-.92-.18-1.37-.09-.4.08-.78.27-1.03.59-.61-.64-1.49-1-2.37-.84-.24.05-.49.12-.67.29-.89-.27-1.92-.19-2.63.46-.17.15-.3.33-.41.52-.74-.5-1.72-.54-2.5-.09-.21.12-.4.27-.56.45,0,0,0,0,0,0-.01,0-.02.02-.02.03-.3,0-.6.04-.89.12-.34.09-.7.2-.99.42-.29.21-.48.55-.63.87-.16.34-.26.7-.27,1.07-.01.37.07.74.24,1.07-.18.13-.3.34-.32.56-.03.22.05.45.19.62,0,0,0,0,0,.01-.11.81.04,1.64.43,2.36,0,0,.01.02.02.02.02.04.04.07.07.1.06.07.14.12.23.16.1.04.21.06.31.05.03,0,.05-.04.05-.06,0-.03-.03-.05-.06-.05-.1,0-.19-.01-.28-.06-.08-.04-.16-.1-.2-.18-.01-.03-.02-.07,0-.09.02-.02.04-.03.07-.03.07-.01.15-.02.21-.06.02,0,.04-.02.04-.05,0-.12-.03-.22-.06-.33-.03-.11-.06-.25.01-.36.07-.1.18-.17.27-.24.1-.08.21-.15.32-.22,0,0,.01-.01.02-.02.03.02.1,0,.09-.05-.04-.36-.02-.73.03-1.09,0-.01,0-.03,0-.04.8.1,1.59-.31,1.98-1.02.07-.12.12-.25.16-.38,0,0,0,0,0,.01.39.29.9.35,1.38.38.12,0,.25,0,.37-.03.12-.03.22-.08.33-.14.24-.13.47-.26.71-.4.27.07.55.07.82.05.27-.01.54-.02.78-.15.32-.18.64-.42.83-.74.36.35.81.6,1.31.69.5.09,1.03.02,1.5-.2,0,0,0,0,0,0,.31.3.8.3,1.21.3.21,0,.42-.02.61-.09.18-.07.35-.18.5-.3.06-.05.11-.1.17-.15.08.37.35.66.67.85.2.12.42.21.63.29.23.08.47.17.71.2.21.02.42,0,.6-.12.22.34.57.58.96.7.39.12.8.11,1.19.03,0,0,0,0,0,.01.11.17.33.18.49.29.09.06.17.15.24.24.07.08.15.17.23.24.32.31.71.55,1.13.71.24.09.49.15.74.17,0,0,0,.01.01.02.47.46,1.12.66,1.75.58.11.16.25.29.41.39.08.05.17.1.26.13.1.04.21.07.31.11.21.08.38.24.57.36.16.1.32.19.49.27.13.24.35.41.62.47.16.04.34,0,.46.14.09.1.15.23.28.3.12.07.25.11.37.17.14.08.21.22.27.36.12.26.3.49.52.67.24.19.52.33.82.39.11.77.57,1.47,1.24,1.87.02.01.04.01.06,0,.05,0,.11,0,.16,0,0,.07-.02.15-.04.22,0,.03.02.06.05.06.1,0,.21,0,.31,0,.02.39.2.73.42,1.05.12.18.25.35.38.53.07.11.16.21.27.28,0,0-.01,0-.02,0-.07,0-.06.12.02.11.37-.03.71.21.83.56,0,0,0,0,0,0,0,0,0,0,0,0,0,0,0,0,0,0-.37.35-.74.7-1.01,1.13-.14.21-.23.46-.39.66-.15.18-.39.27-.53.47-.02.03-.01.07.02.09.46.25.93-.1,1.28-.39.42-.34.83-.68,1.23-1.04.19-.18.4-.35.64-.45.01,0,.03,0,.04-.01.02,0,.03,0,.04-.02.78-.05,1.52-.48,1.93-1.14.43-.7.49-1.58.13-2.32ZM58.38,18.81c.91-.02,1.74.54,2.13,1.36.1.22.17.44.21.68,0,0,0,0,0,0-.34.41-.75.76-1.21,1.02-.43-.64-1.05-1.15-1.75-1.47-.18-.08-.36-.14-.54-.19.08-.07.16-.15.24-.22.3-.27.64-.54.83-.91.05-.09.08-.18.11-.28ZM53.08,17.91c.19-.05.39-.11.59-.09.2.02.33.13.45.28.11.13.22.24.37.31.03.01.05.02.08.03-.83.12-1.7-.12-2.35-.66l.52-.73s.02.01.03.01c.54.02,1.07.1,1.59.22.43.1.9.22,1.22.54-.22.15-.41.34-.56.56,0-.01-.02-.02-.03-.03-.02-.01-.05-.01-.07,0-.02,0-.04.01-.06.02-.15,0-.3-.04-.42-.12-.15-.09-.24-.24-.36-.36-.28-.28-.69-.2-1.04-.1-.07.02-.05.13.02.11ZM55.94,20.44c-.11-.13-.1-.32-.15-.48-.07-.19-.24-.31-.44-.3-.01,0-.02,0-.03,0-.09-.2-.17-.41-.21-.62-.03-.15-.05-.31-.05-.47.17-.27.39-.51.65-.69.33.34.66.7.89,1.12.11.2.19.42.25.64.05.2.09.39.19.57l-.68.62c-.15-.09-.29-.2-.42-.32.02-.02.03-.05.01-.08ZM55.76,20.35c-.16-.17-.29-.37-.4-.57.08,0,.16.02.22.08.06.05.09.12.11.2.03.1.04.2.07.3ZM54.93,18.56c.01.73.32,1.45.84,1.97.13.14.28.26.44.36-.24.01-.44-.15-.63-.29-.21-.16-.41-.32-.6-.5-.36-.34-.65-.78-.68-1.28.22-.04.44-.11.62-.25ZM56.28,21c.42.65,1.05,1.15,1.77,1.41.1.04.2.07.3.09-.77.03-1.52-.31-1.99-.94-.13-.17-.24-.37-.31-.57.08.02.15.02.23,0ZM57.87,22.59c.27.04.54.04.81,0,0,0,0,0,0,0,0,.46,0,.93.12,1.38.1.4.31.75.53,1.09-.67-.46-1.23-1.09-1.57-1.83-.1-.22-.18-.46-.22-.7.1.03.21.06.32.07ZM58.71,22.46c-.08-.01-.17-.03-.25-.05,0-.02-.02-.03-.04-.03-.28-.04-.42-.33-.56-.54-.14-.2-.35-.39-.62-.35-.07.01-.06.12.02.11.28-.04.46.23.6.44.05.08.11.16.18.23-.49-.19-.93-.49-1.29-.87-.13-.14-.25-.29-.35-.45,0,0,0,0,0,0,.24-.22.47-.43.71-.65.74.19,1.43.6,1.94,1.17.13.15.26.31.37.47-.2.2-.42.4-.67.53,0,0-.02-.01-.03-.02ZM56.75,16.3c.38.03.69.26.94.54.24.28.45.61.56.97.11.38.12.79-.05,1.16-.16.37-.49.63-.78.9l-.3.28c-.1-.18-.13-.39-.19-.59-.06-.22-.15-.43-.26-.62-.24-.42-.58-.78-.91-1.14.27-.22.51-.48.71-.77.1-.15.21-.32.27-.49.02-.08.03-.15.02-.23ZM53.77,14.96c.62-.39,1.42-.07,1.96.31.27.19.51.41.72.67.11.14.22.29.18.48-.03.17-.14.34-.24.48-.2.31-.45.58-.74.81-.32-.3-.76-.43-1.18-.53-.54-.13-1.09-.21-1.65-.24l.24-.33c.27-.37.55-.75.66-1.21.04-.15.05-.3.05-.45ZM53.45,14.18c.18.34.26.74.19,1.12-.08.44-.35.81-.6,1.16-.09.13-.18.25-.27.38-.45-.78-1.1-1.43-1.86-1.9.29-.44.52-.9.63-1.42.03-.16.04-.32-.02-.46.78.04,1.56.4,1.94,1.11ZM48.55,12.4s.02,0,.03,0c.72-.36,1.57-.25,2.23.17.17.1.33.22.47.37.06.06.11.13.14.22.03.1.02.21,0,.31-.07.4-.24.78-.43,1.13-.06.11-.13.22-.2.33,0-.01-.01-.02-.03-.03-.84-.37-1.79-.47-2.69-.29.18-.45.31-.91.4-1.39.05-.26.1-.54.09-.81ZM47.46,11.14c.17.1.33.23.48.36.14.13.28.27.37.44.19.36.12.79.05,1.17-.07.42-.18.83-.33,1.23-.03.09-.07.17-.1.26-.11-.4-.43-.69-.76-.94-.41-.31-.83-.61-1.25-.92l.16-.39c.09-.22.18-.44.27-.66.07-.18.13-.37.1-.57-.01-.1-.04-.18-.09-.26.39-.04.77.07,1.1.27ZM45.51,10.25c.17.11.33.24.48.38.07.06.15.13.21.2,0,.02.02.04.04.05.04.06.07.12.09.19.05.19,0,.39-.07.57-.07.2-.16.4-.24.61-.07.17-.14.34-.21.52-.68-.43-1.49-.63-2.29-.57-.21.01-.42.05-.62.1.15-.67.61-1.34.42-2.05.69-.32,1.53-.41,2.2.02ZM42.52,9.37c.25.19.49.43.62.72.15.33.1.71,0,1.05-.11.36-.27.71-.36,1.07-.5-.75-1.34-1.25-2.24-1.33.05-.16.1-.33.15-.49.06-.24.11-.48.13-.73.02-.2.03-.42-.03-.62-.02-.06-.05-.11-.08-.16.64-.07,1.29.1,1.81.48ZM39.63,8.52c.21.04.42.1.62.17.17.06.33.16.41.33.08.18.07.39.06.58-.02.23-.05.45-.11.67-.05.2-.11.4-.17.59,0,0-.02-.01-.03-.02-.94-.22-1.95-.09-2.8.36.09-.7.08-1.41-.04-2.11,0-.01,0-.02-.02-.03,0,0,0,0,0,0,0,0-.02-.02-.02-.03.5-.63,1.38-.67,2.11-.51ZM33.6,8.37c.27.02.53.07.78.15,0,0,0,0,0,0,.31.33.31.85.31,1.27,0,.22-.01.44-.02.66,0,0,0,0,0,0-.77-.06-1.55.17-2.17.63-.16.12-.31.26-.45.4,0-.39-.04-.79-.14-1.17-.08-.32-.18-.68-.45-.88.42-.76,1.3-1.11,2.14-1.06ZM30.64,9.17c.24.07.47.18.68.32.01,0,.03.01.04.01,0,0,.01,0,.02,0,.27.2.37.56.44.87.09.36.13.72.13,1.09-.65-.42-1.46-.53-2.2-.27-.16.06-.32.13-.47.22-.06-.34-.15-.67-.29-.99-.11-.25-.26-.57-.54-.66.57-.58,1.42-.81,2.21-.59ZM25.81,11.34c.13-.31.31-.65.57-.88.25-.22.59-.34.9-.43.38-.11.78-.16,1.18-.14,0,0,0,0,0,0,.23.11.35.42.45.64.12.3.21.6.26.92-.09,0-.17,0-.26.02-.01-.03-.04-.05-.07-.04-.89.26-1.58,1.01-1.76,1.92-.05.24-.06.49-.03.73-.09-.05-.19-.08-.3-.1-.14-.02-.27-.05-.39-.11-.23-.12-.41-.33-.5-.57,0-.01,0-.02-.02-.02-.33-.6-.29-1.32-.03-1.94ZM27.01,15.38s-.04-.01-.06,0c-.12.07-.23.15-.34.23-.1.08-.22.15-.29.26-.14.23.03.47.04.71-.04.03-.1.02-.15.03-.06.01-.11.03-.15.08-.33-.67-.46-1.42-.36-2.16,0,0,0,0,0,0,.02-.02.02-.04,0-.07-.14-.15-.21-.36-.19-.56.02-.18.12-.35.26-.46.1.21.26.4.46.52.11.07.24.11.37.14.15.03.31.04.43.14,0,.02,0,.04.02.06,0,0,0,.01,0,.02-.06.36-.07.72-.04,1.08ZM27.16,14.12c-.11-.9.3-1.79,1.06-2.28.08-.05.17-.1.26-.14.01.01.04.02.06.01.18-.09.38-.13.58-.13,0,.01.02.02.03.03-.02.28.01.57.09.84,0,0,0,0,0,0,0,0,0,.02-.01.02-.12.1-.3.08-.42-.01-.16-.11-.25-.29-.33-.46-.03-.07-.14-.02-.1.04.1.2.21.41.41.53.11.07.25.09.37.06-.2.38-.43.75-.78,1.01-.35.26-.8.29-1.18.48ZM28.51,13.8c-.34.25-.76.38-1.18.37.15-.06.3-.1.46-.15.23-.07.45-.16.65-.31.34-.26.57-.62.77-.99-.1.43-.34.81-.69,1.08ZM31.37,12.96c-.1.06-.2.11-.31.15-.12.04-.25.04-.38.03-.45-.02-.95-.08-1.32-.35-.02-.01-.04-.01-.06,0,.01-.06.02-.11.03-.17.01,0,.02-.01.03-.02.43.21.89.36,1.38.34.25-.01.49-.05.74-.09.05,0,.1-.02.15-.03-.09.05-.17.1-.26.15ZM32.05,12.54s0,0,0,0c-.36-.29-.66-.64-.89-1.03-.04-.06-.14-.02-.1.04.23.4.53.75.88,1.05-.16.07-.33.11-.5.14-.23.04-.47.07-.7.08-.49.02-.95-.15-1.38-.36-.09-.29-.12-.6-.09-.91.39-.25.86-.39,1.32-.39.5,0,.99.17,1.39.46.03.3.05.6.08.91,0,0,0,0,0,0ZM34.18,12.1c-.17.16-.37.31-.58.41-.22.11-.48.11-.72.12-.15,0-.31,0-.46,0,.67-.1,1.3-.37,1.83-.79.09-.07.17-.14.26-.22-.07.18-.19.35-.33.48ZM34.53,11.44c-.33-.05-.65-.21-.88-.45-.05-.05-.14.02-.09.07.24.24.54.41.87.48-.47.44-1.06.76-1.69.92-.19.05-.37.08-.56.09-.03-.31-.05-.61-.08-.92,0-.01.01-.02,0-.04,0,0,0,0,0,0,.5-.55,1.19-.91,1.93-1.01.21-.03.42-.03.63-.02,0,0,0,0,.01,0-.01.25-.03.51-.04.76-.04.04-.07.08-.11.11ZM34.6,11.77s-.02-.01-.03-.02c.04-.08.07-.16.09-.24,0-.02,0-.03,0-.04,0,0,0,0,0,0,0,0,0,0,0,0,.25.07.43.26.62.42.19.15.4.27.62.35.32.12.66.16,1,.14-.81.23-1.71,0-2.31-.6ZM37.3,12.14c-.39-.22-.71-.56-.88-.98-.03-.07-.13-.02-.1.04.18.42.5.78.9,1.01-.44.11-.91.07-1.32-.1-.22-.09-.42-.22-.6-.37-.17-.14-.33-.29-.54-.36.01-.28.03-.55.04-.83.95,0,1.89.27,2.68.78-.04.27-.1.54-.17.8ZM34.8,10.44c.01-.24.02-.48.02-.72,0-.43-.02-.92-.32-1.26.15-.12.35-.19.54-.23.22-.05.44-.06.66-.04.44.04.86.2,1.21.45.2.14.38.3.54.49.11.69.13,1.39.04,2.09-.8-.51-1.74-.78-2.69-.77ZM38.89,12.51c-.26.05-.54.03-.81,0-.14-.01-.29-.04-.42-.09.67.15,1.38.04,1.97-.3-.22.18-.46.33-.75.39ZM37.41,12.23s0,0-.01,0c.08-.29.14-.59.19-.88.85-.47,1.86-.61,2.81-.39,0,0,0,0,.01,0-.08.22-.16.44-.25.66-.02,0-.04,0-.06,0-.02.02-.04.04-.06.06-.17.04-.33-.07-.45-.19-.14-.14-.27-.3-.45-.38-.07-.03-.11.08-.04.1.2.09.33.29.5.43.09.08.2.14.32.15-.69.56-1.64.73-2.49.43ZM41.68,13.31c-.27-.06-.55-.16-.8-.27-.44-.19-.89-.51-.97-1.02.07-.07.13-.14.2-.2.36.66.97,1.16,1.69,1.39.15.05.29.08.44.1-.18.06-.38.05-.56,0ZM42.49,13.12s0,0,0,0c-.23-.09-.36-.31-.47-.52-.11-.21-.22-.43-.42-.58-.06-.05-.13.04-.07.09.37.29.42.87.87,1.09-.9-.09-1.74-.64-2.18-1.44,0,0,0,0,0,0,.1-.25.2-.51.29-.76.9.07,1.74.57,2.22,1.33-.06.27-.14.53-.24.79ZM42.82,12.41s0,0,0,0c.99-.26,2.07-.1,2.93.45-.09.23-.18.46-.28.69,0,0,0,0-.02,0-.13-.03-.25-.06-.37-.11-.12-.05-.23-.12-.33-.2-.1-.08-.19-.16-.3-.22-.11-.06-.22-.11-.33-.16-.07-.03-.11.08-.04.1.13.05.26.11.37.18.11.07.2.15.3.23.17.13.37.2.58.26-.92.31-1.96.16-2.76-.39.1-.27.18-.54.25-.82ZM42.97,13.71c-.13-.09-.24-.19-.34-.31.65.4,1.43.57,2.19.46.03,0,.05,0,.08-.01-.64.22-1.34.25-1.93-.14ZM46.19,15.19c-.18-.11-.36-.24-.52-.39-.16-.15-.28-.33-.44-.47-.08-.08-.18-.12-.28-.16-.09-.03-.19-.07-.25-.14.01,0,.02,0,.03,0,.23-.06.46-.16.68-.26,0,0,0,0,0,0,.44.76,1.07,1.39,1.83,1.82-.37-.06-.73-.2-1.05-.39ZM47.25,15.23c-.12-.12-.23-.25-.3-.41-.14-.3-.22-.63-.47-.87-.05-.05-.12.04-.07.09.25.23.31.57.46.86.07.14.16.25.27.36.07.08.15.15.21.24-.75-.42-1.38-1.03-1.81-1.77,0,0,0,0,0,0l.35-.87c.39.29.78.57,1.16.86.34.25.71.54.8.98,0,.02.02.04.04.04-.12.27-.25.54-.4.8-.05-.12-.14-.22-.23-.31ZM47.53,15.67c.18-.3.34-.62.48-.95.9-.19,1.85-.1,2.7.27,0,0,.02,0,.02,0-.16.24-.34.47-.51.7-.16-.02-.31-.08-.44-.18-.14-.11-.25-.26-.38-.38-.12-.11-.26-.19-.43-.19-.17,0-.33.07-.48.14-.07.03-.02.14.04.1.15-.07.32-.14.49-.12.18.02.31.15.42.28.11.12.22.24.36.32.09.05.19.09.29.12-.36.2-.79.24-1.2.21-.45-.03-.96-.06-1.34-.33,0,0-.01,0-.02,0ZM48.06,16.05s-.09-.04-.13-.07c.31.1.66.12.98.14.27.01.54,0,.8-.06-.52.23-1.12.23-1.65-.01ZM51.3,17.5s-.02-.01-.03-.01c-.25-.12-.5-.27-.72-.43-.11-.08-.21-.15-.34-.2-.12-.05-.26-.08-.38-.14-.21-.1-.38-.24-.52-.42.15-.03.29-.07.43-.13.21-.09.4-.21.57-.36.21.7.66,1.32,1.26,1.73.07.05.15.09.22.14-.17-.04-.33-.1-.49-.18ZM51.87,17.96c-.08-.02-.15-.05-.22-.08-.09-.05-.17-.12-.24-.2.2.08.4.14.61.17.03,0,.04,0,.05-.03,0,0,0,0,0,0,0,.02,0,.04.02.06,0,.04,0,.07,0,.11-.07,0-.15-.01-.22-.03ZM51.3,16.54c-.03-.06-.14-.02-.1.04.21.39.47.74.77,1.07-.59-.29-1.08-.78-1.38-1.37-.09-.19-.17-.38-.22-.59,0,0,0,0,0,0,.16-.21.31-.42.46-.64.76.46,1.4,1.11,1.84,1.88,0,0,.01.01.02.02-.18.25-.35.5-.53.74-.34-.34-.63-.73-.86-1.15ZM53.09,18.64c-.1-.08-.23-.12-.34-.17-.06-.03-.12-.06-.17-.1-.05-.05-.09-.11-.14-.17-.07-.09-.14-.16-.25-.19,0-.03,0-.07,0-.1.6.48,1.38.72,2.15.67.15,0,.29-.03.43-.06-.49.3-1.12.21-1.67.12,0,0-.02,0-.02,0ZM57.67,24.14s0-.07-.04-.07c-.21,0-.32-.19-.43-.35-.11-.16-.23-.31-.34-.47-.21-.31-.4-.65-.39-1.03,0-.05-.05-.07-.09-.06-.09,0-.17,0-.26,0,.02-.07.03-.15.03-.22,0-.03-.02-.06-.05-.06-.08,0-.17,0-.25,0,0,0,0,0,0,0-.63-.4-1.07-1.07-1.17-1.81,0-.03-.02-.04-.05-.05-.56-.1-1.05-.48-1.3-.99-.04-.08-.08-.16-.13-.24.32.05.66.09.98.06.02.41.21.78.47,1.09.14.17.3.32.47.46.17.15.35.29.54.43.08.06.17.11.27.15,0,.01,0,.03,0,.05.26.69.82,1.23,1.51,1.47.05.47.26.91.51,1.3.17.27.36.51.58.74-.08.04-.15.1-.21.17-.12-.28-.36-.48-.65-.54ZM58.38,25.99c-.21.17-.41.34-.62.51-.19.16-.38.33-.59.46-.21.13-.48.21-.72.12.14-.16.34-.25.48-.41.16-.19.25-.43.38-.64.28-.45.68-.82,1.06-1.18.02-.02.02-.04.02-.06,0,0,0,0,0,0,.02-.02.04-.05.06-.07,0,0,0,0,0,0,0,0,0,0,0,0,0,0,.01-.01.02-.02.01,0,.02-.02.03-.03.01,0,.03-.02.04-.03,0,0,0,0,0,0,0,0,0,0,0,0,0,0,0,0,0,0,0,0,.01,0,.02-.01.01,0,.02-.02.03-.03.07.07.15.15.23.21.17.15.35.28.54.4-.38.18-.67.51-.99.78ZM59.52,25.12c-.25-.37-.49-.76-.61-1.2-.11-.44-.12-.9-.12-1.35.27-.14.5-.35.71-.56,0,0,0,0,0,0,.33.31.49.75.55,1.18.04.25.04.51.05.77,0,.13,0,.26-.03.39-.03.11-.08.21-.15.3-.13.16-.29.3-.4.47ZM60.72,24.74c-.32.21-.69.34-1.07.38.11-.15.25-.27.36-.41.16-.2.21-.43.21-.68,0-.51-.02-1.05-.23-1.53-.09-.21-.22-.41-.39-.57.45-.26.85-.6,1.19-1,.58.42.95,1.1.97,1.82.02.79-.38,1.55-1.03,1.99Z"/>
    </g>
    <line class="cls-2" x1="35.28" y1="35.07" x2="26.71" y2="17.1"/>
    <polyline class="cls-2" points="27.14 14.4 30.28 22.38 35.3 35 32.61 19.4"/>
    <line class="cls-2" x1="27.1" y1="15.45" x2="30.35" y2="22.57"/>
    <polyline class="cls-2" points="35.26 35.68 31.12 19.6 31.16 19.33 35.4 12.43"/>
    <path class="cls-2" d="M30.8,13.26c-.04.97-.03,2.05.04,3.2.07,1.03.18,1.99.32,2.87"/>
    <path class="cls-2" d="M28.88,13.61c.27.81.55,1.64.85,2.48.4,1.11.81,2.18,1.22,3.22.05.1.1.2.16.3"/>
    <path class="cls-2" d="M27.11,14.7c.42.44.85.93,1.29,1.47.29.35.55.7.8,1.04.24.35.52.73.84,1.12.32.38.64.72.94,1.01"/>
    <polyline class="cls-2" points="31.52 13.01 32.61 19.4 31.38 13.09"/>
    <polyline class="cls-2" points="31.79 12.86 33.44 21.84 32.08 12.7"/>
    <line class="cls-2" x1="35.59" y1="34.86" x2="33.44" y2="21.84"/>
    <polyline class="cls-2" points="36.63 12.56 36.21 19.16 35.33 34.96"/>
    <line class="cls-2" x1="36.34" y1="12.58" x2="36.21" y2="19.16"/>
    <polyline class="cls-2" points="35.35 35.06 39.7 19.69 41.27 13.3"/>
    <line class="cls-2" x1="41.57" y1="13.4" x2="39.67" y2="19.81"/>
    <polyline class="cls-2" points="35.6 34.84 36.58 21.19 37.33 12.35"/>
    <line class="cls-2" x1="36.95" y1="12.49" x2="36.61" y2="20.86"/>
    <polyline class="cls-2" points="35.63 34.89 39.73 21.67 42.02 13.46"/>
    <line class="cls-2" x1="42.46" y1="13.36" x2="39.6" y2="22.09"/>
    <polyline class="cls-2" points="40.55 37.25 44.6 22.19 46.18 15.32"/>
    <line class="cls-2" x1="46.54" y1="15.49" x2="44.6" y2="22.19"/>
    <polyline class="cls-2" points="40.56 37.23 44.58 24.32 46.99 15.65"/>
    <line class="cls-2" x1="47.42" y1="15.74" x2="44.48" y2="24.63"/>
    <line class="cls-2" x1="51.19" y1="17.58" x2="47.74" y2="23.67"/>
    <polyline class="cls-2" points="51.57 17.95 47.2 25.93 40.59 37.25 47.74 23.67 50.83 17.39"/>
    <line class="cls-2" x1="52.02" y1="18.09" x2="47.16" y2="25.99"/>
    <polyline class="cls-2" points="40.63 37.26 50.42 26.06 54.74 20.7"/>
    <line class="cls-2" x1="54.95" y1="21.12" x2="50.26" y2="26.24"/>
    <polyline class="cls-2" points="40.63 37.31 52.7 29.45 56.41 26.95"/>
    <line class="cls-2" x1="56.34" y1="27.15" x2="52.64" y2="29.48"/>
    <polyline class="cls-2" points="40.52 37.54 53.56 29.02 56.35 27.16"/>
    <line class="cls-2" x1="56.39" y1="27.18" x2="53.77" y2="28.87"/>
    <polyline class="cls-2" points="40.34 37.94 51.08 26.15 55.23 21.49"/>
    <path class="cls-2" d="M54.58,20.1c-.71,1.12-1.43,2.3-2.14,3.56-.48.85-.93,1.68-1.35,2.49"/>
    <path class="cls-2" d="M40.52,37.5l10.46-11.06c.06-.05.12-.1.18-.15,1.03-.22,2.17-.52,3.39-.93,1.06-.36,2.01-.75,2.86-1.14"/>
    <line class="cls-2" x1="56.04" y1="22.26" x2="51.16" y2="26.3"/>
    <line class="cls-2" x1="51" y1="26.43" x2="50.65" y2="17.27"/>
    <path class="cls-1" d="M40.51,37.44s-.09-.02-.13,0c-.06-.11-.12-.23-.2-.32-.12-.16-.32-.23-.5-.3-.18-.06-.38-.1-.57-.05-.12.04-.23.11-.3.21-.21-.27-.43-.54-.73-.72-.15-.09-.31-.16-.48-.19-.19-.03-.39-.01-.58,0,0-.17-.08-.33-.23-.42-.15-.09-.33-.1-.49-.15-.1-.12-.21-.22-.37-.22-.08,0-.16.04-.24.03,0,0-.02,0-.03,0,0,0,0,0,0,0,0,0,0,0,0,0,0-.08,0-.16,0-.23,0-.07-.1-.06-.11,0,0,.05-.01.1-.02.15-.01,0-.02,0-.04-.01-.04-.01-.06.03-.06.06,0,.02,0,.05.02.06.02.01.04.03.06.04-.02.13-.04.26-.06.39h-.01s0,0,0,0c0,0,0,0,0,0,.05-.17.05-.36-.01-.53-.01-.03-.04-.04-.07-.03-.03,0-.06,0-.06.05,0,.18,0,.36,0,.54-.07.03-.13.09-.1.18.01.06.05.09.1.11,0,.77-.03,1.53-.07,2.3-.01.27-.03.55.02.82,0,.02.02.04.04.04.02.03.06.04.09,0,.07-.09.08-.19.09-.3,0-.14,0-.27,0-.41,0-.28-.02-.56-.03-.84,0-.28,0-.56.03-.84.02-.16.04-.31.07-.47.08-.03.18-.03.26,0,.08.02.16.07.24.09.08.02.17.02.26,0,.08,0,.15-.03.21-.08.04,0,.09,0,.13,0,.09,0,.18-.03.28-.03.17.01.24.18.33.31.17.24.43.42.71.51.14.04.27.06.41.06-.06.02-.11.06-.16.1-.07.05-.13.12-.22.13-.1.01-.21-.03-.29.05-.04.04-.06.09-.09.14l-.05.08s-.03.05-.04.08c0,.03,0,.05.02.07.01.03.02.06,0,.1-.02.06-.09.1-.14.14-.03.02,0,.06.03.05.08-.05.18-.12.17-.24,0-.02,0-.04-.02-.06-.01-.04-.01-.06,0-.09.03-.05.06-.11.09-.16.03-.05.06-.09.12-.1.05,0,.1,0,.15,0,.09,0,.16-.05.22-.1.07-.06.15-.13.24-.15,0,0,0,0,.01,0,0,0,.02,0,.02,0,0,0,0,0,0,0,0,0,0,0,0,0,0,0,0,0,.01,0,.02,0,.04,0,.06,0,0,0,0,0,0,0,.15.02.33.07.35.24,0,.04.04.05.07.05.16.12.31.25.46.38.16.14.31.29.47.44.01,0,.02.02.03.03-.16.33-.33.67-.51.99-.3.55-.62,1.1-.96,1.63-.04.06.04.12.08.08.01.04.07.06.1.02.06-.07.1-.15.13-.24.23-.44.46-.88.69-1.32.19-.37.38-.74.58-1.11.02,0,.05,0,.07,0,.07-.03.1-.09.11-.16,0-.04,0-.08-.02-.11.02-.04.05-.08.07-.13.06-.1.12-.19.18-.29.04,0,.07-.04.05-.08.05-.07.1-.17.01-.24ZM35.72,35.66s.02.05,0,.07c0,0-.02,0-.04.01-.02,0-.04,0-.06,0,0,0,0,0-.01,0,.01-.07.02-.15.03-.23.03.04.06.09.08.14ZM36.21,36.42c-.09,0-.18,0-.27-.03-.08-.03-.15-.07-.23-.08-.07-.01-.14,0-.21.01.01-.07.03-.13.04-.2.28.05.54.21.83.26,0,0,0,0,.01,0-.05.03-.11.04-.17.04ZM39.96,38.29s-.02-.02-.02-.02c-.03-.03-.07-.06-.1-.1.03,0,.06,0,.09,0,.03,0,.06,0,.08.01,0,0,0,0,0,0-.02.04-.03.07-.05.11ZM40.14,37.9s-.05.1-.07.15c-.04-.03-.09-.06-.14-.09,0-.01,0-.03,0-.04,0,0,0-.02,0,0,0,0,0-.01,0-.02,0,0,0,0,0,0,0,0,0,0,0,0,0,0,0,0,0-.01,0,0,0,0,0-.01,0,0,0,0,0-.01,0-.01,0-.02.01-.03,0,0,0,0,0,0,0,0,0,0,0,0,0,0,0-.01,0-.02,0,0,.01-.02.02-.03,0,0,.01-.02.02-.02,0,0,0,0,0,0,0,0,0,0,.01-.01,0,0,.02-.01.03-.02,0,0,0,0,.01,0,0,0,0,0,0,0,0,0,.02,0,.03-.01,0,0,.01,0,.02,0,0,0,0,0,0,0,0,0,0,0,0,0,.01,0,.02,0,.03,0,0,0,.01,0,.02,0,0,0,0,0,0,0,0,0,0,0,0,0,.01,0,.02,0,.04,0,0,0,0,0,.01,0,0,0,0,0,0,0-.03.08-.07.15-.1.23Z"/>
    <g>
      <polygon class="cls-1" points="39.76 40.89 39.76 40.89 39.76 40.89 39.76 40.89"/>
      <g>
        <path class="cls-1" d="M39.21,40.55s0,0,0,0h0Z"/>
        <g>
          <polygon class="cls-1" points="35.79 48.67 35.8 48.67 35.8 48.67 35.79 48.67"/>
          <path class="cls-1" d="M40.06,41.97c-.03-.23-.08-.47-.19-.68,0,0,0,0,0,0,0,0,.01-.01,0-.02-.01-.06-.04-.12-.07-.17-.03-.06-.05-.12-.04-.18,0,0,0,0,0,0,0,0,0-.01,0-.02,0,0,0,0,0,0,0,0,0,0,0,0,0,0,0,0,0,0,0,0,0,0,0,0,0,0,.01,0,.02,0,.01,0,.02-.01.03-.02.02-.02.01-.05,0-.08,0-.03-.02-.05-.03-.08-.01-.03-.02-.06-.03-.09,0-.03-.01-.06-.01-.09,0-.03,0-.05-.02-.08-.02-.04-.08-.06-.12-.04,0-.03-.01-.08.02-.1.03-.02.06,0,.09-.03.02-.02.03-.05.02-.08,0-.01-.02-.02-.03-.02,0,0-.01,0-.02,0,.04-.05.07-.1.1-.15.01-.03.02-.06.01-.09,0-.03-.03-.05-.06-.05-.02,0-.03.01-.03.02,0,0,0,0,0,0,0-.08-.01-.16-.02-.24,0-.08-.03-.15-.11-.18-.15-.06-.27.07-.34.18-.03-.02-.09-.02-.12,0-.07.05-.07.17-.08.24-.01.1-.01.19.01.28.02.08.07.16.07.25,0,0,0,.01,0,.02,0,0,0,.01.01.02,0,0,.01,0,.02,0,0,0,0,0,.01,0,0,0,0,0,.01,0,0,0,0,0,.01,0,0,0,0,0,0,0,0,0,0,0,0,0,0,0,0,0,0,.02,0,0,0,0,0,0,0,0,0,0,0,0,0,0,0,0,0,0,0,0,0,0,0,0,0,0,0,0,0,0,0,0,0,0,0,0,0,0,0,0,0,0,0,0,0,0,0,0-.02-.01-.05,0-.04.03.02.03.04.06.06.09.02.03.03.07.02.11,0,.07-.03.14,0,.21,0,.08.03.16.05.24,0,.04,0,.1.03.14.02.02.05.04.08.03,0,0,0,0,0,.01,0,.03-.02.06-.03.08-.02.03-.02.06,0,.1,0,.01.02.03.02.04,0,.02,0,.05-.01.07-.01.04-.02.08-.03.13-.03,0-.06,0-.09-.01-.1-.07-.2-.13-.31-.17-.08-.03-.15-.03-.24-.04-.09-.01-.14-.07-.19-.13.04-.06.06-.13.09-.2.01-.03.02-.06.03-.09,0,0,0,0,0,0,.05-.02.1-.06.13-.1.02-.03.03-.06.03-.09,0-.04,0-.07-.01-.11,0-.01-.02-.03-.03-.02-.01,0-.03.02-.02.03,0,0,0,0,0,0,0,0,0,0,0,0-.05.01-.09.04-.12.08-.02.02-.04.04-.05.06,0,0-.01,0-.02,0-.04,0-.07.02-.1.04,0,0,0,0,0,0-.06.05-.11.1-.14.17-.15-.18-.4-.26-.63-.2-.03,0-.03.05,0,.06-.02.01-.03.03-.03.05,0,0,0,0,0,0-.18,0-.25.24-.12.32-.12.07-.11.29.06.32.01,0,.03,0,.04,0-.05.07-.02.19.06.25-.02.05,0,.11.02.16-.09.09-.02.3.15.29.04,0,.08,0,.12,0-.05.02-.09.06-.13.11-.02.02-.01.05,0,.07-.12.08-.26.15-.36.27-.09.11-.12.25-.19.37-.05.08-.11.14-.18.19-.02,0-.04,0-.05.03,0,0,0,0,0,0-.03.02-.06.04-.1.06-.06.03,0,.11.05.1-.02.06-.04.11-.05.17-.01.04-.02.1-.06.13-.04.03-.08.04-.12.06-.16.13-.11.35-.21.51,0,.01-.01.03,0,.04-.03.05-.07.1-.09.15-.04.08-.05.18-.08.26-.04.08-.09.16-.12.24-.01.04-.03.07-.04.11,0,.01,0,.03-.01.04-.01.04-.02.08-.03.12,0,.05.05.07.08.06.03.04.04.08.04.13,0,.06-.02.11-.03.17-.01.1.01.2.03.3.02.11,0,.23-.03.34,0,.02,0,.03,0,.05,0,.06,0,.11.01.17.01.11.02.22.03.34.02.24.06.49-.03.71,0,.02,0,.04,0,.06-.02.09-.07.18-.12.26-.01.02-.03.05-.05.06-.02.01-.05.02-.07.02-.06.02-.12.07-.11.14-.02.05-.03.1-.03.16-.1.05-.18.13-.25.22,0,0,0,0,0,.01-.06.07-.13.13-.19.2-.14-.09-.32-.12-.47-.06-.03,0-.04.04-.03.07-.14.09-.29.19-.42.3,0,0,0,0,0,0,0,0,0,0-.01,0-.08.08-.17.14-.27.19-.1.06-.19.12-.27.2-.17.17-.34.35-.44.56-.02.04.01.07.05.08,0,0,0,0,0,0,0,0,0,0,0,0,0,.01,0,.03,0,.04v.02s-.09,0-.11.04c-.07.14-.1.29-.09.44,0-.01-.01-.02-.02-.03-.06-.1-.1-.2-.15-.31-.09-.21-.16-.43-.27-.63-.01-.02-.03-.04-.05-.04.04-.02.08-.04.13-.07.03-.02.05-.03.08-.05.02-.01.05-.04.08-.04.02,0,.05.02.07.03.02.01.04.02.07.02.04,0,.03-.06,0-.06-.03,0-.05-.02-.07-.03-.02-.01-.04-.02-.07-.02-.03,0-.05.02-.08.03-.03.02-.06.04-.09.05-.12.07-.24.13-.36.18,0,0,0,0-.01,0-.03.02-.03.06-.02.09.02.05.04.1.06.14.04.1.09.19.13.28,0,0,0,0,0,0l.06.14c.05.13.1.27.16.4.11.24.29.43.47.61,0,.01.02.03.04.02.06-.02.1-.06.12-.11.03-.05.04-.12.02-.17-.01-.03-.04-.04-.05-.07,0-.03.01-.07.02-.1,0-.06-.01-.11-.04-.16,0,0,0,0,0-.01-.02-.09-.03-.18-.02-.27,0-.04,0-.09.04-.13.02-.03.08-.04.09,0,0,.03.05.03.06,0,.01-.09.03-.19.04-.28,0-.03,0-.06-.02-.08-.01-.01-.03-.02-.04-.04-.01-.01-.02-.03-.03-.04.1-.16.24-.3.37-.43.15-.14.36-.22.51-.37,0,0,0,0,0,0,.16-.12.32-.24.49-.34.02,0,.03-.01.04-.03.11,0,.22.03.3.1.02.02.06.01.08-.01,0,0,0,0,0,0,0,0,0,0,0,0,.08-.08.16-.16.23-.24,0,0,0-.01.01-.02.01-.02.03-.03.04-.05,0,0,0-.01.01-.02,0,0,0,0,0,0,0,0,0,0,0,0,0,0,0,0,0,0,0,0,0,0,0,0,0,0,0,0,0,0,0,0,.02-.02.03-.03.02-.02.04-.03.07-.05,0,0,.01,0,.02-.01,0,0,0,0,0,0,0,0,0,0,0,0,.01,0,.02-.01.04-.02.01,0,.02-.01.03-.03,0,0,0,0,0,0,0,0,0-.02,0-.03,0-.04,0-.07.01-.1,0,0,0-.02,0-.03,0,0,0,0,0,0,0,0,0,0,0,0,0,0,0,0,0-.01,0-.02.01-.04.02-.05,0,0,0,0,0-.01,0,0,.02,0,.03,0,.03,0,.06-.01.09-.03.05-.03.08-.1.11-.15.06-.11.11-.23.11-.36.06-.19.04-.4.03-.6,0-.11-.02-.23-.03-.34-.01-.12-.05-.25,0-.37,0-.01,0-.02,0-.04,0-.05.01-.1,0-.15,0-.1-.04-.2-.04-.3,0-.11.04-.21.03-.31,0-.04-.02-.08-.04-.12-.02-.03-.06-.07-.05-.11,0,0,0-.01,0-.02,0,0,0,0,0,0,0-.01.01-.02.01-.04,0-.03.02-.06.03-.08.03-.08.08-.15.11-.22.03-.08.04-.17.07-.25.03-.08.09-.14.13-.21.01-.02.01-.04,0-.06.03-.06.04-.13.05-.2.02-.09.05-.19.14-.23.04-.02.08-.03.11-.07.03-.04.05-.08.06-.13.03-.11.07-.22.1-.32.08-.05.15-.11.21-.19.09-.12.11-.27.2-.39.15-.19.41-.25.55-.45.04,0,.08,0,.11,0,.12,0,.24,0,.36,0,.25,0,.49.01.74.01.12,0,.24,0,.36,0,.1,0,.21-.01.3-.07.2-.11.16-.32.13-.52ZM38.69,40.94s0,.03,0,.04c0,.01-.02.02-.03.03,0,.01-.02.02-.03.04,0,.01-.01.02-.02.03,0,0,0,0,0,0,0,0,0-.01,0-.02,0-.02,0-.03.01-.05,0,0,0-.01,0-.02.02-.02.05-.04.07-.05ZM38.48,41.3s0,0,0,0c0,0,0,0,0,0,0,0,0,0,0,0,0,0,0,0,0,0,0,0,0,0,0,0,0,0,0,0,0,0,0,0,0,0,0,0,0,0,0,0,0,0,0,0,0,0,0,0-.01,0-.02,0-.03,0,0,0,0,0,0,0,0,0,0,0,0,0,0,0,0,0,0,0,0,0,0,0,0,0,0,0,0,0,0,0,0,0,0-.01,0-.02,0-.01,0-.03,0-.04s0-.03,0-.04c0-.01,0-.02,0-.03,0,0,0,0,0-.01.02-.04.04-.07.08-.08,0,0,0,.02,0,.03,0,.03.01.06.04.07,0,0,.01,0,.02,0,0,.04-.03.07-.04.11,0,0,0,0,0,.01Z"/>
        </g>
      </g>
    </g>
    <g>
      <path class="cls-1" d="M34.57,39.35s0,0,0,0h0Z"/>
      <path class="cls-1" d="M35.14,39.92s0-.01,0-.02c-.02-.1,0-.21.05-.29,0-.01,0-.03,0-.04-.01,0-.03,0-.04,0-.05.08-.07.18-.07.28-.05-.03-.1-.07-.15-.1,0-.01,0-.03,0-.04,0-.04-.03-.08-.06-.1-.06-.05-.13-.07-.21-.08,0-.01,0-.02.01-.03,0,0,.01,0,.01,0,0-.01,0-.03,0-.04,0,0,0,0,0,0,0,0,0,0,0,0,0,0,0,0,0,0,0,0,0,0,0,0,0,0,0,0,0,0,0,0,0,0,0,0,0,0,0,0,0,0,0,0,0-.01-.01-.02,0,0,0,0,0,0,0,0,0,0,0,0,0,0,0,0,0,0,0,0,0,0,0-.01,0,0,0-.01,0-.02,0,0,0,0,0,0,0,0,0,0,0,0,0,0,0,0,0,0,0,0,0,0,0-.01,0,0,0-.02,0-.02,0,0,0,0,0,0,0,0,0,0,0,0,0,0,0,0,0-.01,0,0,0,0,0,0,0,0,0,0,0,0,0,0,0,0,0,0,0,0,0,0,0,0,0,0,.01,0,.02,0,.01,0,.02-.02.02-.04,0,0,0,0-.01-.01.01-.14.05-.28.1-.4.01,0,.02-.01.03-.02.02-.03.02-.06.02-.09.03-.02.04-.06.05-.1,0-.03,0-.06,0-.08,0-.03.02-.05.03-.08.04-.08.1-.18.05-.28,0,0,0,0,0,0,.07-.13.17-.23.29-.32.01,0,.01-.02.01-.03.02-.05.02-.11,0-.16.02-.02.05-.03.08-.04.04-.01.08,0,.11-.04.02-.01.03-.04.03-.06,0-.02-.01-.03-.02-.05.02,0,.03-.01.05-.03.06-.05.08-.15.02-.21,0,0-.01,0-.02-.01.02-.02.04-.04.05-.07.02-.06-.02-.13-.07-.17-.12-.1-.28-.07-.42-.05-.02,0-.03.03-.02.04,0,0-.01.01-.01.03,0,.03,0,.06,0,.09-.01.03-.05.03-.07.04-.05.02-.09.08-.1.13,0,0,0,0,0,.01-.01.04-.02.08-.01.12,0,.01,0,.02.02.04-.04.03-.06.08-.06.13,0,.03,0,.06.02.08-.05.05-.08.11-.09.18,0,.01,0,.03.02.03-.02.06-.04.12-.07.18-.03,0-.06,0-.09-.01-.01-.01-.04-.02-.05,0-.04.08-.09.17-.15.24-.03.03-.06.06-.07.11,0,.01,0,.03,0,.04,0,0,0,0,0,0-.02.05-.06.09-.08.13-.02.03-.04.07-.03.11,0,0,0,0,0,0-.07.09-.12.2-.17.31-.05.09-.1.2-.07.3.01.03.06.01.05-.02-.03-.1.03-.2.08-.28.05-.09.09-.17.14-.25,0,0,.02,0,.03,0,.01.02.03.04.06.04.05,0,.08-.02.09-.05.04-.02.08-.05.1-.09.01-.02.02-.04.03-.06,0-.01,0-.03.01-.04,0-.02,0-.03,0-.05,0,0,0-.01,0-.02.07-.07.13-.15.16-.24,0,0,.02.01.02.01,0,.01.01.02.03.03.02,0,.04,0,.05,0,0,.02.03.03.04.03,0,0,0,0,0,0,0,0,0,0,0,.01-.01.03.04.06.05.02,0-.02.01-.03.02-.05,0,.06-.04.12-.07.18-.02.04-.04.08-.04.12,0,.03,0,.09-.02.11,0,0,0,0,0,0-.02,0-.03.02-.02.03,0,0,0,.02,0,.02,0,0,0,0,0,0,0,0,0,0,0,.01,0,0,0,0,0,.01,0,0,0,0,0,0,0,0,0,0,0,0,0,0,0,0,0,0,0,0,0,0,0,0,0,0,0,0,0,0,0,0,0,0,0,0,0,0,0,0,0,0,0,0,0,0,0,0,0,0,0,0,0,0,0,0,0,0,0,0,0,0,0,0,0,0,0,0,0,0,0,0,0,0,0,0,0,0,0,0-.02,0-.02,0,0,0,0,0,0,0,0,0,0,0,0,0,0,0,0,0,0,0,0,0,0,0-.01,0-.01,0-.03,0-.03.02,0,.01,0,.03.02.03,0,0,.01,0,.02,0-.05.13-.08.26-.09.4-.04.03-.08.07-.08.13,0,.01,0,.03.02.03.02,0,.03,0,.03-.02,0,0,0,0,0,0,0,0,0,0,0,0,0,0,0,0,0,0,0,.04.03.07.06.1-.02.05-.03.09-.05.14,0,.01,0,.03.02.04.01,0,.03,0,.04-.02l.02-.05c.07,0,.13.03.19.07.02.02.05.04.04.07,0,.04-.01.08,0,.11,0,.01.02.03.03.02.01,0,.03-.02.02-.03,0,0,0-.01,0-.02.06.03.11.07.17.11,0,.01,0,.02.01.04.01.03.06.01.05-.02,0,0,0-.02,0-.03Z"/>
    </g>
    <g>
      <g>
        <path class="cls-1" d="M35.67,48.65s0,0,0,0c0,0,0,0,0,0,0,0,0,0,0,0Z"/>
        <path class="cls-1" d="M36.33,47.41c0-.11,0-.23-.02-.34-.01-.05-.02-.09-.01-.14,0-.05,0-.11-.02-.16-.03-.08-.13-.06-.16,0-.04-.03-.1-.03-.13.02-.05-.04-.15,0-.14.08-.03-.05-.1-.06-.14-.02,0-.04-.03-.07-.07-.07-.02,0-.04,0-.06.02-.01-.01-.03-.02-.04-.03,0-.02,0-.05,0-.07,0-.04-.03-.09-.07-.1-.05,0-.09.03-.1.07v.02s0,0-.01,0c-.01,0-.01,0-.02-.01,0,0,0,0,0,0,0,0,0,0,0,0,0,0,0,0,0,0,0,0,0,0,0,0,0-.02,0,0,0-.02-.02-.06-.03-.12-.04-.19-.02-.12-.04-.25-.05-.37,0-.01,0-.02-.01-.03.01,0,.02-.02.03-.04.05-.11.03-.24-.04-.34,0-.01-.02-.02-.04-.03,0,0-.01,0-.02-.01-.06-.03-.13-.06-.19-.1-.02,0-.05,0-.07,0-.01,0-.03.02-.04.03-.01,0-.02,0-.03,0,0-.01,0-.02,0-.04,0-.02-.02-.04-.03-.06-.01,0-.03-.01-.04-.02,0-.03-.03-.05-.05-.06-.03-.01-.06,0-.09.01,0-.01-.01-.03-.03-.04-.01,0-.02-.01-.04-.02.02-.06.04-.12.05-.18.01-.03.02-.07.02-.1,0,0,.02-.02.02-.03.02-.04,0-.1-.05-.11,0,0,0,0,0,0,0,0,0-.01,0-.02-.02-.02-.05-.03-.08-.03-.05-.04-.1-.08-.13-.14,0-.03-.01-.06-.01-.09,0-.02-.02-.04-.03-.06,0,0,0,0,0,0,0-.07,0-.14.01-.21,0-.01,0-.02,0-.03,0,0,0,0,0,0,.04,0,.08-.05.07-.1,0-.04-.05-.08-.1-.07,0,0-.01,0-.02,0,0,0,0,0,0,0,0,0,0,0,0,0,0,0-.01,0-.01,0,0,0,0,0,0,0,0,0,0,0-.01,0,0,0,0,0,0,0,0,0-.01,0-.02-.01,0,0,0,0,0,0,0,0,0,0,0-.01,0,0,0,0,0-.01,0,0,0,0,0,0,0,0,0-.01,0-.02,0,0,0-.01,0-.02,0,0,0,0,0,0h0s0-.04,0-.05c0-.03,0-.04,0-.07,0-.03,0-.06,0-.09,0-.04,0-.09.01-.13,0,0,0,0,.01,0,.02-.02.03-.05.04-.07,0-.03.02-.05.02-.08,0,0,0,0,0,0,.01.01.03.02.05.02.02,0,.05,0,.06-.02.03-.03.05-.08.02-.12-.04-.04-.08-.07-.13-.1-.02-.01-.04-.02-.05-.04,0,0,0,0,0-.01,0,0,0,0,0,0,0,0,0,0,0-.01,0,0,0-.02,0-.03,0-.02,0-.04,0-.06,0,0,0,0,.01,0,.04,0,.08-.05.07-.1,0-.04-.04-.07-.07-.07.15-.28.3-.61.15-.91,0-.01.01-.03,0-.05,0-.04-.05-.08-.1-.07,0,0,0,0-.01,0,0,0,0,0,0,0,0,0,0-.01,0-.02-.02-.19.12-.35.27-.46.09-.06.18-.12.27-.18.03-.02.06-.04.09-.06,0,.02.03.04.05.02.01-.01.02-.03.03-.04.04-.03.07-.05.1-.08.04-.03.06-.08.04-.13,0,0,0,0,0-.01,0,0,.01,0,.02,0,.1.05.16-.11.07-.16-.06-.03-.14-.06-.18-.12-.06-.07-.06-.16-.1-.24-.04-.08-.11-.13-.18-.19-.05-.04-.1-.08-.16-.12,0,0,0-.01-.02-.02-.02-.02-.04-.04-.07-.05,0-.01-.02-.03-.04-.04,0,0-.01,0-.02-.01,0,0,0,0,0,0,0,0,0,0,0,0-.01,0-.02-.01-.03-.02-.02-.02-.04-.03-.06-.05,0,0,0,0,0,0,0,0,0,0,0,0,0,0,0,0-.01-.01,0,0-.02-.02-.03-.03-.02-.02-.03-.04-.05-.07-.03-.05-.06-.1-.08-.16,0-.08-.04-.15-.09-.21,0,0-.01-.02-.02-.02,0,0,0,0,0,0-.03-.27.1-.52.27-.72.03-.04.02-.08,0-.11-.01-.02-.03-.03-.06-.03-.04,0-.06.01-.08.03-.02.01-.03.04-.03.06-.08.1-.14.21-.19.33-.01,0-.02,0-.03.02-.06.13-.09.27-.09.41,0,0,0,.01,0,.02.05.11.09.21.14.32.04.1.09.2.16.28.07.08.15.15.23.21.09.07.18.14.27.2,0,0,0,0,0,0,.05.05.08.11.11.17.02.06.04.12.08.17,0,0,0,.01,0,.02.03.03.06.06.1.08.02.01.04.02.06.03.02,0,.04.01.05.03.03.03-.02.07-.04.1,0,0,0,0,0,0-.08.05-.16.1-.24.16-.1.06-.19.12-.28.19-.14.11-.27.28-.25.47-.12.06-.27,0-.4.06-.06.02-.1.06-.12.12-.03.07-.03.14-.04.21-.02.16-.05.32-.08.48-.03.12-.03.27.09.33.03.01.06.02.09.01.04,0,.08-.01.13,0,.04,0,.08.01.11.02,0,.03,0,.06,0,.09,0,.04,0,.08.02.12.02.03.06.05.09.07,0,0,0,0,0,0-.13.13-.09.33-.1.49,0,.08-.02.17.02.24.02.05.06.09.11.11-.08.28.02.58.26.75,0,0,0,0,0,0,0,.06-.03.12-.05.18-.02.04-.03.08-.02.12,0,.02.02.04.04.05-.08.14-.18.28-.28.41-.06.08-.13.16-.2.24-.05.05-.12.11-.14.18,0,0-.02,0-.02,0-.15.11-.29.24-.41.39-.02,0-.02.02-.02.03,0,0,0,.02,0,.02,0,.14,0,.28-.02.43,0,0-.01.02,0,.03.08.15.19.28.33.38.07.05.14.09.22.13.05.02.17.09.19,0,0,0,0,0,0-.01,0,0,0-.01,0-.02,0,0,0-.02,0-.03.02-.11.04-.22.06-.33,0-.07.02-.13.01-.2,0,0,0,0,0,0,.02-.1.04-.19.07-.29,0-.02.01-.03.03-.04.02-.01.03-.03.03-.05,0-.03,0-.06,0-.09.06-.05.09-.11.12-.18.03-.08.05-.15.09-.22.08-.15.19-.27.33-.36,0,0,.01,0,.02,0,0,.01.03.02.04,0h0s0,0,0,0l.1-.09s.03-.03.05-.04c0,0,0,0,0,0,0,0,0,0,0,0,.04.02.08.05.1.09,0,.02.01.04,0,.06,0,.02-.02.04-.03.06-.01.04,0,.09.02.14,0,0,0,0,0,.01,0,0,0,0,0,0,.01.14.03.28.06.42.01.06.02.14.05.2.01.02.03.04.04.06-.02.11-.01.22,0,.33.01.12.02.25.03.37-.08.06-.13.15-.14.25-.04,0-.08,0-.11.03-.02.02-.03.04-.04.07,0,0-.01,0-.02.02-.26.32-.52.64-.81.93-.29.29-.58.59-.9.85,0,0,0,.01-.01.02,0,0-.01-.01-.02-.01-.02,0-.04,0-.07,0-.07.03-.13.08-.2.12-.01,0-.02.01-.03.02-.04.02-.07.07-.05.11.01.03.04.05.07.05-.02.03-.03.07,0,.1.02.02.05.03.08.03,0,0,0,0,0,.02,0,.02,0,.05.02.06,0,0,.02.02.03.02-.01.01-.02.03-.02.04,0,.04.03.09.07.1,0,0,0,0,0,0,0,.04,0,.07-.01.11,0,.02,0,.05.02.06,0,0,.01.02.02.02,0,0,.02.01.03.01,0,0,0,0,.01,0,0,.03,0,.06,0,.09,0,.02,0,.04.02.06.01.02.04.03.06.03,0,0,0,0,0,0,0,.02,0,.04,0,.06,0,.04.03.09.07.1.05,0,.09-.03.1-.07.02-.15.05-.28.09-.42.02,0,.04,0,.06-.02.04-.03.04-.07.02-.11,0,0,0,0,0,0,0,0,0,0,0,0,0,0,0,0,0-.01,0,0,0-.02,0-.02,0,0,0,0,0,0,0,0,0,0,0,0,.01-.04.03-.08.04-.13,0-.01,0-.03,0-.04.01,0,.03-.01.04-.03.35-.44.81-.78,1.33-1,.05-.02.06-.06.05-.1,0,0,0,0,.02,0,.09,0,.18.01.27.02.02,0,.04,0,.06-.01,0,0,0,0,0,0,.03.03.08.05.12.02.02-.02.04-.06.03-.09,0,0,0,0,.01,0,.02-.01.04-.03.05-.05.03-.01.05-.04.05-.08,0,0,0,0,0,0,0,0,0,0,0,0,0,0,0,0,0,0,0,0,0-.01.01-.02,0,0,0,0,.01-.01,0,0,0,0,0,0,0,0,0,0,0,0,0,0,0,0,0,0,0,0,0,0,0,0,0,0,0,0,0,0,0,0,.01-.01.02-.02.01-.01.03-.02.04-.04.05-.04.11-.09.16-.12.04-.02.04-.09.02-.12.03-.02.05-.06.04-.09.03,0,.07-.01.08-.04.01,0,.02-.02.03-.03.04,0,.08,0,.09-.05.09-.23.15-.47.16-.72Z"/>
      </g>
      <path class="cls-1" d="M36.17,45.37c.1-.09.17-.22.19-.36.04-.22-.3-.26-.34-.04-.09.49-.9.13-1.24.03.08-.06.12-.19,0-.27-.34-.23-.27-.87-.1-1.17.06-.11-.01-.2-.11-.22.01-.1.02-.21.02-.31,0,0,0,0,0,0,0,0,0,0,0,0,0-.02,0-.03,0-.05,0-.01,0-.02,0-.03.02-.08.06-.15.11-.21.14-.17-.13-.38-.27-.21-.13.15-.19.33-.2.53,0,0,0,0,0,0,0,0,0,0,0,0,0,.02,0,.03,0,.05,0,0,0,.02,0,.03-.11.06-.12.23-.02.3,0,.06.04.1.08.12-.19.46-.16,1.16.26,1.46,0,0,0,0,.01,0-.06.05-.07.14-.04.21,0,0,0,0,0,0-.06.08-.03.17.03.24.07.07.17.1.26.12.1.02.21.04.32.06,0,.02,0,.05,0,.08.05.3.1.59.15.89.02.11.12.15.21.14,0,0,0,.01,0,.02.03.1.12.14.2.14,0,0,0,0,0,0,.05.21.38.17.34-.04.02,0,.03,0,.05,0,.09.02.19-.02.2-.14.04-.4.11-.99-.12-1.36Z"/>
    </g>
    <path class="cls-1" d="M38.36,39.56c-.05-.11-.12-.21-.18-.31,0,0,0-.02,0-.02-.16-.14-.35-.28-.57-.27-.11,0-.2.05-.29.1-.09.05-.17.11-.24.18-.08.07-.15.16-.2.26,0,0-.01,0-.02.01-.09.16-.18.33-.2.52-.02.16.02.33.12.46,0,.04,0,.07.02.11,0,0,0,0,0,0,0,0,0,0,0,0,0,0,0,0,0,.01,0,0-.01.02-.02.02,0,0,0,0,0,.01,0,0,0,0,0,0s0,0,0,0c0,0,0,0-.01.01,0,0-.02.01-.02.02,0,0,0,0-.01,0,0,0,0,0,0,0,0,0,0,0,0,0-.01,0-.03.01-.04.02-.02-.03-.04-.07-.06-.09-.04-.05-.1-.07-.15-.06,0,0,0,0,0,0-.01-.02-.03-.05-.04-.07-.02-.02-.05-.04-.08-.04-.02,0-.05,0-.07.02-.09-.08-.21-.13-.33-.15-.06-.18-.07-.36-.06-.55,0-.08,0-.16-.04-.23-.03-.04-.06-.06-.1-.07.02-.06.02-.13,0-.19-.02-.08-.07-.15-.1-.23.02.02.05.03.08.04,0,0,.02,0,.02,0,0,0,.01-.02,0-.02-.01-.05-.04-.1-.09-.14,0,0-.02,0-.02,0,0-.02-.02-.04-.05-.05-.05-.02-.09,0-.13.03,0,0,0,0,0,0,0,0-.01,0-.02,0-.02,0-.02.02-.02.03,0,.04,0,.08.02.12,0,0,0-.01,0-.02-.03-.06-.07-.12-.12-.16-.01-.01-.03,0-.04,0,0,0,0,0,0,0,0,0-.02,0-.02.01-.03.06-.05.12-.04.19,0,.01,0,.03,0,.04,0,0,0,0,0,0,0,0,0,.01,0,.02,0,0,0,0,0,.01-.04.05-.06.1-.08.16-.02.07-.05.21.05.23,0,0,0,0,.01,0,0,.02,0,.03,0,.05,0,.01-.01.02-.02.04-.02.09-.02.18,0,.26-.01-.01-.03-.03-.04-.04-.06-.06-.13-.11-.21-.12,0-.09-.06-.17-.14-.19-.04-.01-.08-.02-.12-.02,0,0-.01,0-.02,0,0,0,.01-.01.01-.02,0,0,0-.01,0-.02,0-.02,0-.03,0-.04-.01-.03-.03-.07-.04-.1,0-.01-.01-.02-.02-.03,0,0-.01-.01-.02-.02.05-.01.07-.07.05-.11.05-.16.11-.33.16-.49.02-.02.02-.04.02-.06.01-.02.02-.05.01-.07,0-.01,0-.02.02-.03-.01.02,0,0,0,0,0,0,0-.01.01-.02.04-.06.08-.12.09-.19,0,0,0-.02,0-.02,0,0,.01-.02.01-.03,0-.02,0-.05-.02-.06-.03-.03-.08-.05-.12-.02-.03-.05-.1-.08-.14-.02-.04.05-.07.11-.09.17-.04-.01-.08,0-.09.05-.05.14-.1.28-.15.42-.03,0-.05,0-.07.03-.1.12-.17.27-.21.42,0,.01,0,.03,0,.04-.02.01-.04.03-.05.06,0,.03.01.07.04.08,0,0,0,.01,0,.02,0,.02.02.04.03.06,0,0,0,0,0,.01-.02.04,0,.1.05.11,0,0,0,0,.01,0,0,.03.01.07.05.08-.04.04-.04.11.02.14,0,0,.02,0,.02.01,0,.03,0,.05.03.07.06.05.12.11.18.17,0,0,.01.01.02.02,0,0,0,0,.01.01,0,0,0,0,0,0,.01.01.03.03.04.04.03.03.06.06.09.09.02.03.06.04.09.03.04.04.09.09.13.12.01,0,.02.01.03.02l.02.13c0,.06.01.13.05.19.06.11.17.17.27.23,0,0,.02,0,.03,0,0,0-.01.01-.02.02-.19.22-.42.4-.68.51-.02.01-.04.03-.06.04-.01,0-.02.02-.03.03-.12.19-.19.52.05.62-.07.07-.07.19,0,.26-.05.11-.04.24.02.33-.26.12-.22.52.03.62-.05.1-.06.23,0,.33-.2.13-.26.45-.02.57,0,.03,0,.07,0,.11.02.15.09.28.19.38-.07.09-.05.26.1.28.28.04.57.09.86.08.04,0,.08,0,.11-.01.02.06.06.11.14.12.18.02.24-.2.13-.3.02-.03.03-.06.04-.1.05.09.2.14.29.04.1-.11.14-.23.16-.36.05-.02.09-.06.09-.13,0-.09.02-.19.04-.28.14-.19.39-.27.32-.56.02-.02.04-.04.06-.06.02-.05.14-.09.18-.13.07-.06.11-.14.15-.22.09-.19.18-.35.33-.49.1,0,.16-.07.17-.14.12-.05.13-.25,0-.31-.06-.22-.17-.42-.31-.61.03-.01.05-.03.07-.05.06-.08.03-.17-.03-.24-.03-.03-.07-.07-.1-.1,0,0,0,0,.01,0,.09,0,.18-.05.19-.15,0-.03,0-.05-.01-.08,0,0,.01,0,.02,0,.12-.08.24-.18.33-.3.07-.08.12-.19.11-.3.14-.04.25-.16.3-.3.07-.2.02-.42-.07-.61ZM35.53,39.29s.05.08.1.1c0,.04,0,.08-.02.12,0,0-.02,0-.02,0,0,0-.01,0-.01.01-.02-.08-.04-.15-.06-.23-.01-.05-.02-.1-.04-.14,0,0,0-.01,0-.02.02.05.03.1.05.15ZM35.43,38.98s.06-.03.08-.02c.01.01,0,.04,0,.06-.02.03-.05.05-.07.08,0,0,0,0,0,0-.01-.04-.02-.08-.02-.12,0,0,.01,0,.02,0ZM35.31,39.16s0,.03-.02.04c-.01,0-.03,0-.04,0,.02-.02.04-.03.06-.04ZM35.21,39.15s0,0,0,0c0,0,0-.02,0-.02,0-.03,0-.07.01-.11,0,0,0,0,0,0,.02.02.05.04.07.07-.03.01-.06.03-.08.05ZM35.37,39.39s-.06.01-.1,0c-.03,0-.06-.01-.07-.04-.02-.03,0-.07,0-.1,0,0,0,0,0-.01,0,0,0,0,.01.01.05.03.11.02.14-.02.02-.02.02-.05.02-.08,0,0,0,0,0,0,0,.02.01.03.02.04,0,0,.01.01.02.01,0,0,0,0,0,.01,0,.06,0,.14-.06.16Z"/>
  </g>
  <g id="Layer_3" data-name="Layer 3">
    <path class="cls-1" d="M28.03,33.88s-.02-.09-.06-.13c0,0,0,0,0,0-.09-.16-.3-.08-.33.06-.17.13-.38.2-.58.27-.28.1-.55.19-.83.29-.56.19-1.13.38-1.7.57-1.04.34-2.08.66-3.12.97,0-.07-.01-.14-.02-.22-.03-.2-.08-.4-.14-.6-.01-.03-.02-.07-.04-.1,0-.02,0-.05.01-.07.07,0,.14-.03.13-.11,0-.13.03-.25.07-.38.04-.13.08-.27.09-.41,0-.03-.01-.06-.03-.08.27-1.36.52-2.72.77-4.08,0-.04,0-.07-.03-.1,0,0,0,0,0,0l.64-3.44c.06-.31.12-.62.17-.94,0,0,0,0,0,0,.03,0,.05,0,.08,0,.02,0,.03-.01.05-.01.01,0,.03,0,.04-.01.05,0,.11-.01.16-.03.05-.02.1-.05.13-.09.03-.05.03-.12,0-.17-.06-.09-.19-.12-.3-.14.05-.19.09-.38.1-.57,0-.03-.03-.06-.06-.06,0,0-.01,0-.02,0-.02,0-.05.01-.06.04-.06.18-.11.37-.15.56-.07,0-.14,0-.2.05-.01,0-.03,0-.04,0-.04.02-.08.05-.11.07-.03.02-.07.05-.08.09,0,.04,0,.1.02.14.02.03.05.06.08.08.07.04.16.05.24.04,0,0,0,0,0,0l-.63,3.37c-.06.32-.12.64-.18.97-.04,0-.08.03-.09.09-.24,1.35-.5,2.69-.76,4.04,0,0-.02.01-.02.02,0,0,0,0,0,0,0,0-.01.02-.01.03,0,0,0,.01,0,.02,0,0,0,.01,0,.02,0,.02,0,.03,0,.05-.07.08-.1.21-.12.32-.02-.09-.05-.18-.08-.27-.01-.11-.03-.21-.07-.31.03-.47-.15-.94-.34-1.37,0-.06.02-.11.04-.17.02-.08-.02-.18-.1-.21,0-.17-.02-.33-.05-.5-.02-.14-.05-.27-.09-.41-.03-.11-.09-.21-.19-.26.01-.18.02-.37.03-.55,0-.25.02-.54-.17-.7.09-.18.17-.38.21-.58,0-.02,0-.04,0-.07.02,0,.05,0,.07,0,.05,0,.09-.02.13-.05.02-.02.03-.04.04-.06,0-.01.01-.02.01-.04.25-.34.57-.73.53-1.15,0-.41-.03-.85-.23-1.22-.04-.08-.1-.16-.16-.22,0-.01-.02-.03-.03-.04-.16-.2-.37-.34-.57-.47-.21-.14-.45-.29-.72-.26-.05,0-.09.02-.13.06,0,0-.02-.01-.03-.02-.01,0-.02-.02-.04-.03-.04-.03-.08-.05-.13-.05-.04,0-.1.02-.13.05-.02.02-.03.04-.04.06-.22-.02-.45.02-.65.14-.02,0-.03-.01-.05-.01.02,0-.02,0-.02,0,0,0-.02,0-.03,0-.03-.01-.06-.03-.08-.05-.04-.03-.1-.09-.13-.14-.09-.11-.17-.24-.27-.35-.17-.2-.37-.37-.58-.51,0-.17,0-.33-.05-.49-.05-.17-.13-.32-.26-.45.07-.3.11-.61.14-.91.09-.15.18-.3.25-.46.03-.07.03-.15-.02-.21.03-.02.05-.04.08-.07.14-.14.27-.32.26-.53,0,0,0-.01,0-.02,0,0,0,0,0-.01.01-.07.02-.1.05-.15.03-.06.07-.11.1-.16.08-.12.16-.23.2-.37.09-.26,0-.54-.25-.66-.07-.06-.17-.08-.27-.06-.04,0-.07.03-.11.05-.15-.02-.3-.02-.46,0-.05,0-.09.02-.13.05-.03.03-.05.08-.05.13,0,.05.02.09.05.13.01.01.03.02.04.03,0,0,.01,0,.02.01,0,.02,0,.04,0,.05,0,0,0,0,0,0,0,0,0,.02,0,.03,0,.04-.02.09-.03.13,0,.02-.01.03-.02.05,0,0-.01.04-.02.04-.07.15-.16.3-.25.44-.02.03-.02.06-.02.09-.18.14-.33.33-.44.53-.17.3-.31.61-.47.92-.02.03-.02.07-.02.1-.05.06-.09.13-.13.19-.02.04-.03.08-.02.13-.04.27-.07.54-.07.81,0,.11.01.22.02.33-.04.34-.01.67.16.97.02.25.01.49,0,.74-.14.11-.27.22-.39.35-.03.03-.05.08-.05.13,0,0,0,0,0,0,0,.02-.01.04-.02.06,0,0,0,.02,0,.02,0,.01-.01.03-.02.04-.03.06-.06.11-.1.16,0,0,0,0,0,0,0,0,0,0,0,.01-.01.01-.02.03-.04.04-.02.02-.04.04-.06.06-.01.01-.03.02-.04.04,0,0,0,0,0,0,0,0,0,0,0,0-.03.02-.06.04-.09.06-.13.08-.26.14-.37.25-.08.08-.15.18-.18.3-.45.37-.89.76-1.31,1.16-.21.2-.42.39-.62.6-.09.09-.16.2-.16.34,0,.09.04.19.11.25.19.41.45.79.76,1.12-.03.22-.01.44-.02.66-.01.28-.16.52-.22.79-.05.26-.06.54-.06.8,0,.24.04.49.19.69.3.41.8.5,1.2.77.2.14.38.29.62.34.17.04.39.03.53.14.03.37.13.73.33,1.04.1.16.22.3.34.44.1.11.22.24.23.4,0,0,0,0,0,0-.26,0-.51.01-.77.06-.09.02-.15.13-.13.22.03.08.09.12.17.13.19.12.39.18.6.19-1.16.4-2.32.79-3.49,1.16-.75.23-1.49.46-2.25.68-.38.11-.75.22-1.13.32-.25.07-.56.21-.56.51,0,.38.43.53.74.57.25.03.5-.01.74-.07.04,0,.07-.02.11-.02.12-.01.24-.03.36-.05.02,0,.03-.01.04-.02,2.04-.74,4.07-1.49,6.11-2.23.49-.18.99-.35,1.51-.44.21,1.77.42,3.54.64,5.32.07.58.14,1.16.21,1.74,0,.02,0,.04.02.06.02.27.04.54.06.8.02.24.03.49.06.73.02.2.06.4.19.56.23.27.65.35.96.17.3-.18.44-.59.3-.92,0-.02-.02-.03-.02-.05-.3-2.55-.66-5.1-1.08-7.64-.06-.36-.12-.72-.18-1.09.47-.08.93-.22,1.39-.37,0,0,0,0,0,0,0,.01.02.02.03.04.02.02.05.04.08.05.03,0,.06.01.09,0,.03,0,.06,0,.09-.01.03,0,.05-.02.08-.03,0,0,0,0,.01,0,.07.02.14.02.22,0,.14-.05.21-.17.25-.31.56-.18,1.12-.35,1.68-.52.73-.22,1.47-.42,2.2-.62.37-.1.74-.2,1.11-.29.32-.08.65-.16.96-.3.53-.25.98-.84.77-1.43ZM23.39,25.16s-.02-.01-.04-.01c-.03,0-.06,0-.09,0,0,0,0,0-.01,0,0,0,0,0,0,0,0,0-.01,0-.02,0,0,0,0,0,0,0,0,0,0,0,0,0,0,0,0,0,0,0,0,0,0,0,0,0,0,0,0,0-.01-.01,0,0,0,0,0,0,0,0,0,0,0,0,0,0,0,0,0,0,0,0,0,0,0,0,0,0,0-.01-.01-.02,0,0,0-.01-.01-.02,0,0,0,0,0,0,0,0,0,0,0,0,0,0,0-.01,0-.02.06.01.11.03.17.05.03.01.08.04.07.08ZM22.76,25.24s-.04-.02-.06-.03c0,0-.01-.01-.01-.02,0-.01,0-.03-.01-.05,0,0,0,0,0,0,.01,0,.02-.02.03-.03.02.06.05.11.09.15-.02,0-.04,0-.05-.01ZM20.2,35.51s0,.01,0,.02c-.02.11-.05.21-.08.32-.03.01-.05.02-.07.04,0,0-.01,0-.02,0-.1,0-.16.07-.17.15-.25-.04-.49-.08-.74-.1,0,0,0,0,0-.01-.01-.19.08-.36.15-.54.07-.2.09-.4.05-.61-.08-.35-.36-.64-.71-.74-.16-1.17-.28-2.35-.35-3.53.03.34.14.67.32.95-.05.3-.02.6.11.88.07.15.18.28.35.32.03,0,.07.01.1.02,0,.11.02.21.04.32.03.15.09.27.14.41.02.06.02.11.03.17,0,.08.03.15.07.22.06.1.15.17.24.24-.03.1-.04.21-.02.31.02.12.1.21.16.31.05.08.09.16.14.23,0,.09,0,.19.03.27.04.1.11.17.19.24.01.01.03.03.04.04-.02-.03,0,.02,0,0,0,0,0,.01,0,.02,0,0,0,.01,0,.02,0,.01,0,.02,0,.03Z"/>
    <g>
      <polygon points="7.53 18.86 7.53 18.86 7.53 18.86 7.53 18.86"/>
      <path d="M16.92,20.45s-.02,0-.02,0c.03-.02.05-.06.05-.1,0-.07-.06-.11-.12-.12-.56-.07-1.12-.14-1.69-.22-.03,0-.07,0-.1.02-.75-.11-1.49-.22-2.24-.33-.03,0-.06,0-.09.02-.31,0-.62-.06-.93-.11-.31-.06-.63-.12-.94-.17-.64-.11-1.28-.21-1.92-.31-.36-.06-.72-.11-1.07-.17-.02,0-.04,0-.05.01,0,0,0-.01,0-.02-.02-.14-.07-.28-.19-.37-.07-.05-.15-.05-.21,0-.07.05-.1.13-.11.21,0,.02,0,.04.01.05-.16-.02-.32-.03-.48-.04-.01,0-.03,0-.04.01-.02,0-.04.02-.04.04,0,.03.01.06.04.07.16.07.33.1.5.12.01.12.05.25.14.34.09.09.24.11.33.01.05-.05.05-.13.06-.2,0-.04,0-.09,0-.13,0,0,0,0,.01,0,1.29.2,2.58.39,3.86.63.32.06.64.11.97.13,0,.04.03.09.09.09.75.11,1.5.23,2.26.34,0,0,0,0,0,0,0,.04.03.08.09.09.31.05.61.1.92.15.29.05.57.1.85.19.15.05.21-.18.06-.23ZM7.55,19.32s-.07-.06-.09-.11c.01.01.02.03.04.04.04.03.1.07.15.07-.03.02-.07.01-.1,0ZM7.68,18.91s-.03-.1-.06-.13c-.04-.04-.09-.04-.14-.02-.02.01-.04.03-.06.05.01-.05.03-.12.08-.13.05-.02.1.05.13.09.04.07.06.15.07.23,0-.02-.01-.05-.02-.07Z"/>
    </g>
  </g>
</svg>