<?xml version="1.0" encoding="UTF-8"?>
<svg id="Layer_1" data-name="Layer 1" xmlns="http://www.w3.org/2000/svg" viewBox="0 0 64 64">
  <defs>
    <style>
      .cls-1 {
        fill: #fff;
      }
    </style>
  </defs>
  <g>
    <path class="cls-1" d="M32,63.92C14.4,63.92.08,49.6.08,32S14.4.08,32,.08s31.92,14.32,31.92,31.92-14.32,31.92-31.92,31.92Z"/>
    <path d="M32,.15c17.56,0,31.85,14.29,31.85,31.85s-14.29,31.85-31.85,31.85S.15,49.56.15,32,14.44.15,32,.15M32,0C14.33,0,0,14.33,0,32s14.33,32,32,32,32-14.33,32-32S49.67,0,32,0h0Z"/>
  </g>
  <path d="M45.17,30v-10.44s-6.59,0-6.59,0v4.81l-6.59-6.13-21.08,19.76h5.27v17.13s11.86,0,11.86,0v-13.17h7.9v13.17s11.86,0,11.86,0v-17.13h5.27l-7.9-8.01h0Z"/>
  <path d="M41.33,19.06c-.12-.05.98-1.46.61-3.01-.52-2.22-3.4-2.23-3.68-4.01-.29-1.88,2.74-2.94,2.37-4.99-.25-1.41-1.83-1.74-1.73-3.01.1-1.22,1.64-2.06,1.73-1.98.09.08-1.22.95-1.18,2.15.04,1.27,1.54,1.42,1.9,2.73.49,1.83-2.07,2.89-1.76,4.82.3,1.8,2.69,1.88,3.07,3.87.33,1.76-1.21,3.49-1.34,3.43Z"/>
  <path d="M40.19,10.14c-.21-.16,1.43-.73,1.32-3.12-.06-1.23-1.41-1.36-1.54-2.54-.15-1.4,1.15-2.65,1.25-2.59.09.05-.86,1.04-.74,2.34.16,1.66,1.62,1.5,1.64,2.96.03,1.95-1.73,3.11-1.94,2.95Z"/>
  <path d="M41.24,18.63c.2,0,.69-1.41.24-2.64-.8-2.16-3.86-1.98-4.17-3.55-.29-1.5,2.22-3.02,2.13-3.13-.11-.12-3.29,1.65-3.03,3.23.24,1.43,3.04,1.26,4.22,3.66.6,1.22.44,2.44.62,2.43Z"/>
</svg>